<?xml version="1.0" encoding="utf-8"?>
<!-- Generator: Adobe Illustrator 18.1.1, SVG Export Plug-In . SVG Version: 6.00 Build 0)  -->
<svg version="1.1" id="Layer_1" xmlns="http://www.w3.org/2000/svg" xmlns:xlink="http://www.w3.org/1999/xlink" x="0px" y="0px"
	 viewBox="-253.5 360.2 64.8 73.3" enable-background="new -253.5 360.2 64.8 73.3" xml:space="preserve">
<g>
	<path fill="#363636" d="M-188.7,384.5c0,4.8,0,9.5,0,14.3c-0.1,13.5-5.9,23.6-18,29.8c-2.8,1.5-5.5,3.2-8.4,4.7
		c-0.6,0.3-1.5,0.5-2,0.2c-4.2-2.3-8.4-4.6-12.5-7.1c-3.3-1.9-5.9-4.7-8.1-7.7c-0.9-1.3-1.9-1.9-3.5-1.8c-2.7,0.1-5.5,0.1-8.2,0
		c-2.4,0-4.1-1.8-4.1-4.1c0-6.3-0.1-12.6,0-18.8c0-2.3,1.7-4.2,4.1-4.2c1.4,0,2.7,0,4.1,0c1.2,0,1.7-0.5,1.7-1.7
		c0-7.2,0-14.4-0.1-21.6c0-1.5,0.6-1.8,1.9-1.8c7.9,0.1,15.7-1.1,23-4c1.8-0.7,3.2-0.7,5,0c7.3,2.9,14.9,4.1,22.7,4
		c2.3,0,2.3,0,2.3,2.4C-188.8,372.9-188.7,378.7-188.7,384.5z M-231.1,416c0.6,0.8,1,1.5,1.6,1.9c4.1,2.6,8.2,5.2,12.4,7.6
		c0.5,0.3,1.4,0.1,2-0.2c2-1,4-2.2,6-3.3c8.9-5,13.5-12.5,13.3-22.8c-0.1-5.1,0-10.1-0.1-15.2c0-0.8,0.2-1.5,1.1-1.4
		c0.4,0.1,1,0.8,1,1.3c0,5.6,0.1,11.2,0,16.9c-0.2,8.5-3.5,15.5-10.4,20.5c-3.6,2.6-7.5,4.5-11.4,6.6c-0.5,0.3-1.4,0-2-0.3
		c-2.4-1.2-4.8-2.6-7.2-3.9c-3.8-2.1-7.1-4.8-9.5-8.5c-0.2-0.4-0.8-0.8-1.1-0.8c-0.4,0-0.9,0.6-0.9,1c-0.1,0.6-0.1,1.4,0.3,1.9
		c2.5,3.3,5.4,6.2,9.1,8.2c3.2,1.8,6.4,3.6,9.6,5.2c0.6,0.3,1.6,0.3,2.2,0c2.9-1.5,5.7-3.1,8.5-4.7c10.3-5.7,15.5-14.6,15.6-26.5
		c0-10.2,0-20.5,0-30.7c0-1.9-0.2-2.1-2.2-2.1c-7.2-0.2-14.3-1.4-21.1-4c-1.4-0.5-2.6-0.5-3.9,0c-6.9,2.5-14,3.8-21.3,4
		c-1.8,0-2.1,0.3-2.1,2.1c0,6.3,0,12.7,0,19c0,1.1,0.2,2,1.5,1.9c1.2,0,1.4-0.9,1.4-1.9c0-5.6,0-11.2-0.1-16.9
		c0-1.2,0.5-1.7,1.7-1.7c6.7-0.2,13.1-1.6,19.5-3.8c0.8-0.3,1.9-0.3,2.8,0c6.2,2.2,12.6,3.5,19.1,3.8c1.8,0.1,2.2,0.5,2,2.3
		c0,0.4-0.3,1.1-0.7,1.2c-0.3,0.1-0.9-0.2-1.3-0.5c-0.6-0.3-1.2-0.9-1.9-1c-6-0.5-11.8-1.8-17.5-3.7c-0.7-0.2-1.7-0.2-2.4,0
		c-5.6,1.8-11.2,3.1-17,3.6c-2,0.2-2.2,0.3-2.2,2.2c0,5.2-0.1,10.3,0,15.5c0,1.2,0.6,2.4,1.1,3.5c0.1,0.3,0.8,0.7,1.1,0.6
		c1-0.4,2.1-0.8,2.9-1.6c2.3-2.4,1.5-5.5,1.3-8.4c-0.2-2.3,0.3-4,2-5.4c1.3-1.1,2.9-1.6,4.5-0.9c2.1,1,3.6,2.5,3.6,5
		c0,2.1,0,4.3,0,6.4c0,2.4,0.6,3,2.9,3c2.4,0,4.9,0,7.3,0c3.8,0.1,6.4,2.5,6.5,6.2c0.2,4.2,0.3,8.4,0.3,12.6c0,4.3-2.7,6.9-7,6.9
		c-4.2,0-8.4,0-12.6,0c-2.5,0-5.1,0.5-7.4-1C-230.3,415.8-230.5,415.9-231.1,416z M-218.4,414.9L-218.4,414.9c1.4,0,2.7,0,4.1,0
		s2.7,0,4.1,0c2.8-0.1,4.7-1.8,4.8-4.4c0.1-4.2,0.2-8.4,0.3-12.6c0-3.1-1.9-5-5-5.1c-2.5,0-5,0-7.4,0.1c-2.7,0.1-4.3-1.4-4.3-4.1
		c0-2.2,0-4.4,0-6.5c0-2-1.7-3.8-3.4-3.8c-1.9,0-3.3,1.6-3.4,3.7c0,1.5,0,3,0,4.6c0.1,4.4-1.6,7-5.6,8.6c-1,0.4-1.4,0.9-1.4,2
		c0,4.1,0,8.2,0,12.3c0,1,0.4,1.6,1.4,1.6c1.9,0,3.2,1,4.6,2.3c0.8,0.8,2.2,1.3,3.3,1.4C-223.7,415.1-221,414.9-218.4,414.9z
		 M-237.6,403.4c0-3,0-6,0-9c0-2.1-0.5-2.7-2.7-2.7c-2.8,0-5.6,0-8.4,0c-1.8,0-2.5,0.6-2.5,2.4c0,6.1,0,12.1,0,18.2
		c0,1.7,0.6,2.4,2.4,2.4c2.9,0,5.9,0,8.8,0c1.8,0,2.4-0.7,2.4-2.5C-237.6,409.4-237.6,406.4-237.6,403.4z"/>
	<path fill="#363636" d="M-193.1,378.8c-0.8,0.5-1.2,1.1-1.5,1c-0.4-0.1-0.8-0.6-1.2-1c0.3-0.4,0.7-1,1-1
		C-194.4,377.8-194,378.3-193.1,378.8z"/>
	<path fill="#363636" d="M-244.4,412.2c-1,0-1.9,0.1-2.9,0c-0.4-0.1-0.8-0.6-1.2-0.9c0.4-0.4,0.7-1.1,1.1-1.1c2-0.1,3.9-0.1,5.9,0
		c0.4,0,0.7,0.6,1.1,1c-0.4,0.4-0.7,1-1.2,1C-242.5,412.3-243.5,412.2-244.4,412.2z"/>
</g>
</svg>
