<?xml version="1.0" encoding="utf-8"?>
<!-- Generator: Adobe Illustrator 18.0.0, SVG Export Plug-In . SVG Version: 6.00 Build 0)  -->
<!DOCTYPE svg PUBLIC "-//W3C//DTD SVG 1.1//EN" "http://www.w3.org/Graphics/SVG/1.1/DTD/svg11.dtd">
<svg version="1.1" id="Layer_1" xmlns="http://www.w3.org/2000/svg" xmlns:xlink="http://www.w3.org/1999/xlink" x="0px" y="0px"
	 width="113.2px" height="99px" viewBox="0 0 113.2 99" enable-background="new 0 0 113.2 99" xml:space="preserve">
<path fill="#363636" d="M49.4,85.9c-20.4-0.1-36.7-17.6-35-37.8c1.9-22.7,24.8-37.6,46.3-30.2c1.2,0.4,2.1,0.3,3.2-0.4
	C77.1,9.5,93,17,95.4,32.2c1.2,7.3-2.9,16.1-9.4,19.9c-1.2,0.6-1.6,1.4-1.8,2.7c-2.3,17-14.4,28.9-31.5,30.9
	C51.6,85.9,50.4,85.8,49.4,85.9z M80,54.7c-5.2,1.2-10.1,0.7-14.6-1.8c-1.3-0.7-1.9-0.4-2.8,0.5c-5,4.9-10.1,9.7-15.2,14.5
	c-0.9,0.9-1.6,1.3-2.7,0.3c-4.4-4.5-8.8-8.9-13.2-13.4c-0.8-0.8-0.7-1.5,0-2.2c0.9-0.9,1.7-1.7,2.6-2.6c1.7-1.6,1.9-1.6,3.6,0
	c2.7,2.6,5.4,5.3,8.1,8c3.8-3.6,7.7-7.3,11.4-11c0.3-0.3,0.2-1.2-0.1-1.7c-4.3-7.8-3.9-15.4,1.2-22.8c0.2-0.3,0.4-0.7,0.6-1.1
	c-10.4-3.7-24.4-1.3-33.6,9.7c-8.7,10.5-9.4,25.6-1.8,36.7c7.8,11.6,22,16.6,35.3,12.4C71.3,76.5,79.3,64.9,80,54.7z M70.9,50
	c6.1,2.6,14.5-0.9,17.9-6.9c4.1-7,2.6-15.5-3.8-21c-5.5-4.7-14.5-4.8-20.2-0.2c-5.6,4.6-8,13-5.1,18.3c0.4-0.4,0.8-0.7,1.2-1.1
	c4.8-4.7,9.6-9.5,14.4-14.2c1.8-1.8,3.4-1.8,5.3,0c1.9,1.8,3.7,3.6,5.5,5.6c1.9,1.9,1.8,3.4-0.1,5.3c-4.5,4.4-9,8.9-13.5,13.3
	C72,49.5,71.4,49.7,70.9,50z"/>
</svg>
