<?xml version="1.0" encoding="utf-8"?>
<!-- Generator: Adobe Illustrator 18.0.0, SVG Export Plug-In . SVG Version: 6.00 Build 0)  -->
<!DOCTYPE svg PUBLIC "-//W3C//DTD SVG 1.1//EN" "http://www.w3.org/Graphics/SVG/1.1/DTD/svg11.dtd">
<svg version="1.1" id="Layer_1" xmlns="http://www.w3.org/2000/svg" xmlns:xlink="http://www.w3.org/1999/xlink" x="0px" y="0px"
	 width="124px" height="99px" viewBox="0 0 124 99" enable-background="new 0 0 124 99" xml:space="preserve">
<path fill="#363636" d="M32,86.1c0-24.4,0-48.6,0-72.7c0.2-0.2,0.4-0.3,0.6-0.3c13.3,0.1,26.5,0,39.8,0.5C83,14,88.9,20,89.5,30.3
	c0.4,7.3-2.8,12.7-9.7,16.1c0.7,0.3,1,0.6,1.4,0.7c6.9,2.5,10.7,7.6,11.5,14.6c1,7.9-1,14.8-8,19.6c-5.1,3.6-10.9,4.8-17,4.9
	c-11.6,0.2-23.2,0.1-34.9,0.1C32.7,86.3,32.5,86.2,32,86.1z M47.9,73.4c7.2,0,14.2,0.4,21.3-0.2c5.2-0.4,7.7-3.8,8-8.9
	c0.2-5.5-2.4-9.6-7.6-10.2c-6.3-0.7-12.7-0.5-19.1-0.6c-0.8,0-1.7,0.1-2.5,0.2C47.9,60.5,47.9,67.1,47.9,73.4z M47.9,42.6
	c6.4,0,12.7,0.3,18.9-0.1c4.6-0.3,7.2-3.7,7.2-8.3c0.1-4.6-2.2-7.6-7.2-8.2c-3.7-0.5-7.4-0.4-11.1-0.5c-2.6-0.1-5.3,0-8,0
	C47.9,31.4,47.9,36.9,47.9,42.6z"/>
</svg>
