<?xml version="1.0" encoding="utf-8"?>
<!-- Generator: Adobe Illustrator 18.0.0, SVG Export Plug-In . SVG Version: 6.00 Build 0)  -->
<!DOCTYPE svg PUBLIC "-//W3C//DTD SVG 1.1//EN" "http://www.w3.org/Graphics/SVG/1.1/DTD/svg11.dtd">
<svg version="1.1" id="Layer_1" xmlns="http://www.w3.org/2000/svg" xmlns:xlink="http://www.w3.org/1999/xlink" x="0px" y="0px"
	 width="137.7px" height="99px" viewBox="0 0 137.7 99" enable-background="new 0 0 137.7 99" xml:space="preserve">
<path fill="#363636" d="M115.2,25.6c-1.2,0-2.1,0-3.3,0c0-3,0-5.9,0-8.9c-25.5,0-50.6,0-75.9,0c0,17.4,0,34.8,0,52.6
	c17.7,0,35.4,0,53.3,0c0,2.4,0,4.6,0,6.9c-0.9,0-1.5,0-2.2,0c-16.4,0-32.8,0-49.3,0c-3.7,0-4.8-1.1-4.8-4.8c0-17.9,0-35.7,0-53.6
	c0-3.7,1.1-4.8,4.8-4.8c24.3,0,48.5,0,72.8,0c3.6,0,4.7,1.1,4.7,4.6C115.2,20.3,115.2,22.8,115.2,25.6z"/>
<path fill="#363636" d="M130.4,57.3c0,8.1,0,16.2,0,24.3c0,3.6-1.3,4.8-4.9,4.8c-9.8,0-19.6,0-29.3,0c-3.3,0-4.6-1.3-4.6-4.6
	c0-16.5,0-33,0-49.5c0-3.1,1.4-4.5,4.5-4.5c9.9,0,19.9,0,29.8,0c3.2,0,4.5,1.4,4.5,4.7C130.4,40.8,130.4,49,130.4,57.3z M93.1,32.8
	c0,15.7,0,31.1,0,46.4c12,0,24,0,35.9,0c0-15.6,0-31,0-46.4C116.9,32.8,105.1,32.8,93.1,32.8z M110.5,85.4c0.4,0,0.7,0,1.2,0
	c0.6-0.9,1.7-1.8,1.6-2.7c-0.1-0.7-1.5-1.9-2.1-1.9c-0.9,0.1-2.2,1.2-2.3,2C108.6,83.6,109.9,84.6,110.5,85.4z M116.7,30.6
	c0-0.2,0-0.3,0-0.5c-3.6,0-7.2,0-10.9,0c0,0.2,0,0.3,0,0.5C109.5,30.6,113.1,30.6,116.7,30.6z"/>
<path fill="#363636" d="M30.3,63.6c0,6.1,0,12.1,0,18.2c0,3.4-1.2,4.5-4.6,4.5c-4.8,0-9.6,0-14.4,0c-2.9,0-4.2-1.3-4.2-4.2
	c0-12.4,0-24.7,0-37.2c0-2.9,1.3-4.2,4.2-4.2c4.9,0,9.8,0,14.7,0c3.1,0,4.3,1.3,4.3,4.3C30.3,51.4,30.3,57.5,30.3,63.6z M8.1,80.9
	c7.2,0,14.2,0,21.2,0c0-12.4,0-24.6,0-36.9c-7.1,0-14.2,0-21.2,0C8.1,56.4,8.1,68.5,8.1,80.9z M18.9,81.2c-0.7,1-1.6,1.6-1.6,2.1
	s0.9,1.3,1.5,1.5c0.3,0.1,1.4-0.7,1.4-1.3C20.2,82.9,19.6,82.2,18.9,81.2z"/>
<path fill="#363636" d="M86.1,84.7c-8.6,0-16.7,0-24.9,0c0-0.2,0-0.3,0-0.3c3.2-0.1,5.2-2,7-4.4c0.3-0.4,1.2-0.5,1.8-0.6
	c1.3-0.1,2.6,0.1,3.7-0.1c3.2-0.4,5.5,0.6,7.6,3.2C82.3,83.6,84.2,84,86.1,84.7z"/>
<rect x="107.6" y="80.3" fill="#363636" width="6.6" height="5.4"/>
<rect x="15.3" y="80.9" fill="#363636" width="6.2" height="4.5"/>
<circle fill="#FFFFFF" cx="18.6" cy="83.5" r="1.5"/>
<circle fill="#FFFFFF" cx="111" cy="82.9" r="2"/>
</svg>
