<?xml version="1.0" encoding="utf-8"?>
<!-- Generator: Adobe Illustrator 18.0.0, SVG Export Plug-In . SVG Version: 6.00 Build 0)  -->
<!DOCTYPE svg PUBLIC "-//W3C//DTD SVG 1.1//EN" "http://www.w3.org/Graphics/SVG/1.1/DTD/svg11.dtd">
<svg version="1.1" id="Layer_1" xmlns="http://www.w3.org/2000/svg" xmlns:xlink="http://www.w3.org/1999/xlink" x="0px" y="0px"
	 width="159.5px" height="99px" viewBox="0 0 159.5 99" enable-background="new 0 0 159.5 99" xml:space="preserve">
<g>
	<path fill="#363636" d="M100.7,12.9c0.7,0.2,1.5,0.5,2.2,0.7c4.6,1.3,6.5,3.8,6.5,8.5c0,2.7,0,5.4,0,8.9c-1.5-1.6-2.2-2.7-3.3-3.5
		c-4.2-3.7-9-2.9-11.4,2.1c-1.5,3.2-2.6,6.7-2.7,10.1c-0.2,6.5,0.4,13.1,0.7,19.7c0.1,1.3,0.7,2.8,1.2,4c2.9,6.8,8.3,7.6,13.3,2.2
		c1.8-2.1,3.9-3.9,6.1-6.1c3.4,3.5,6.7,7,10.4,10.7c7-17.3,13.8-34.1,20.6-51c2.9,1.1,5.7,2.1,8.4,3.1c0,0.4,0,0.7,0,1.1
		c-2.7,6.5-5.5,12.9-8.1,19.4C139,56.8,133.4,71,127.7,85c-0.1,0.4-0.2,0.6-0.5,1.1c-5.9-5.9-11.5-11.5-17.8-17.8
		c0,2.6,0.2,4.3-0.1,6c-0.2,1.3-0.9,2.9-1.8,3.8c-5,4.5-11.5,4.2-16-0.9c-4.3-4.6-6-10.5-6.8-16.6c-1.7-11-1.6-21.9,1.3-32.6
		c0.2-1,0.5-1.8,0.9-2.7c2.3-6.2,5.7-11.1,12.8-12.3C99.9,12.9,100.3,12.9,100.7,12.9z"/>
	<path fill="#363636" d="M43.5,14.7c2.6,0,4.8,0,7.3,0c-2.4,21.7-4.8,43.3-7.2,65.1c-3.1,0-5.7,0-8.9,0c-1.8-16-3.5-32-5.4-47.9
		c-0.2,0-0.4,0-0.6,0c-1.7,15.9-3.5,31.7-5.3,47.7c-3.1,0-5.9,0-8.9,0C12,58,9.7,36.4,7.3,14.7c2.6,0,4.8,0,7.3,0
		c1.7,15.1,3.4,30.4,5.1,45.7c0.2,0,0.4,0,0.6,0c1.7-15.1,3.3-30.3,5-45.8c2.1,0,4-0.1,6,0.1c0.6,0.1,1.6,1.2,1.7,2
		c1.2,11,2.4,22,3.7,33c0.4,3.5,0.9,7.1,1.8,10.7C40.1,45.1,41.8,30,43.5,14.7z"/>
	<path fill="#363636" d="M55,65.7c2.1,1.3,3.8,2.7,5.6,3.4c4.4,1.8,8.1,0,9.2-4.6c0.5-2,0.6-4.2,0.4-6.2c-0.6-4.9-2.7-6.5-7.6-6.6
		c-0.6,0-1.1-0.1-1.8-0.1c0-3.4,0-6.8,0-10.5c3.8,0,7.7,0,8.5-4.9c0.7-3.8,1.2-7.9-2.3-10.5c-3.5-2.6-6.8-0.1-10.4,2.2
		c0-3.9-0.1-7.4,0.1-11.1c0-0.6,1-1.3,1.6-1.7c8.9-4.6,17-1,18.4,8.9c0.6,4.4,0.4,8.9-0.2,13.3c-0.4,2.6-2.3,5-3.8,7.7
		c5.9,6.7,7.3,20.6,2.9,29.4c-4,8.1-13.7,7.9-19.4,4c-0.5-0.4-1-1.2-1-1.8C55,73.1,55,69.5,55,65.7z"/>
</g>
</svg>
