<?xml version="1.0" encoding="utf-8"?>
<!-- Generator: Adobe Illustrator 18.0.0, SVG Export Plug-In . SVG Version: 6.00 Build 0)  -->
<!DOCTYPE svg PUBLIC "-//W3C//DTD SVG 1.1//EN" "http://www.w3.org/Graphics/SVG/1.1/DTD/svg11.dtd">
<svg version="1.1" id="Layer_1" xmlns="http://www.w3.org/2000/svg" xmlns:xlink="http://www.w3.org/1999/xlink" x="0px" y="0px"
	 width="129.3px" height="99px" viewBox="0 0 129.3 99" enable-background="new 0 0 129.3 99" xml:space="preserve">
<g>
	<g>
		<path fill="#363636" d="M80.5,29.3c-0.5,0.9-0.8,1.6-1.2,2.3c-3.7,6.3-7.4,12.6-11,18.9C65.1,56,62,61.4,58.9,66.8
			c-3.5,6.2-7.1,12.3-10.6,18.5c-0.4,0.8-1.1,0.9-1.8,0.4c-2.2-1.3-4.5-2.6-6.7-3.9c-1-0.6-1-1.3-0.5-2.1c2.4-4.1,4.8-8.2,7.1-12.3
			c2.3-3.9,4.5-7.8,6.8-11.7c2.3-3.9,4.5-7.8,6.8-11.7c2.2-3.7,4.3-7.5,6.5-11.2c1.5-2.6,3-5.2,4.5-7.7c0.6-1,1.4-1.3,2.4-0.7
			c2,1.1,4.1,2.2,6.1,3.4C79.8,28,80.1,28.7,80.5,29.3z M77.3,30.1c-1.4-0.8-2.7-1.7-4.1-2.4c-0.5-0.3-0.9-0.6-1.3,0.2
			c-1.6,2.9-3.4,5.8-5.1,8.7c-0.1,0.2,0,0.8,0.2,0.9c1.5,0.9,3,1.7,4.5,2.5C73.5,36.7,75.4,33.5,77.3,30.1z"/>
		<path fill="#363636" d="M54.5,22.7c0,3.5,0,6.9,0,10.4c-7.2,0-14.4,0-21.9,0C36.5,39.2,40.3,45,44.1,51c-3.1,2-6,3.9-9,5.8
			c-2.3-3.6-4.5-7-6.7-10.5c-3.2-5-6.5-10-9.7-15c-0.2-0.3-0.2-0.8-0.1-1c1.6-2.4,3.2-4.7,4.9-7.1c0.2-0.3,0.6-0.5,0.9-0.5
			c9.9,0,19.8,0,29.6,0C54.1,22.6,54.3,22.7,54.5,22.7z"/>
		<path fill="#363636" d="M69.7,78.6c0-3.4,0-6.8,0-10.4c7.1,0,14.3,0,21.7,0c-3.9-6-7.6-11.9-11.4-17.7c3-1.9,5.9-3.8,8.9-5.7
			c1.1,1.7,2.2,3.2,3.2,4.8c2.2,3.5,4.4,6.9,6.6,10.4c2.2,3.4,4.4,6.8,6.5,10.2c0.2,0.4,0.2,1.1,0,1.5c-1.5,2.2-3,4.4-4.6,6.6
			c-0.2,0.2-0.5,0.5-0.8,0.5c-10,0-19.9,0-29.9,0C70,78.7,69.9,78.7,69.7,78.6z"/>
		<path fill="#363636" d="M84.3,17.3c-1,0.6-1.9,1.2-2.9,1.8c-0.5,0.3-0.8,0.7-0.8,1.4c0,1.1-0.1,2.2-0.4,3.4c-0.6-1-1.2-2.1-1.9-3
			c-0.2-0.3-0.8-0.6-1.2-0.6c-1.2-0.1-2.3,0-3.6-0.3c1-0.7,2.1-1.3,3.1-2c0.3-0.3,0.7-0.8,0.7-1.2c0.1-1.2,0-2.4,0.3-3.7
			c0.6,1,1.3,2,1.9,3c0.4,0.7,0.8,0.8,1.5,0.8c1.1,0,2.2,0.1,3.2,0.2C84.3,17.1,84.3,17.2,84.3,17.3z"/>
		<path fill="#363636" d="M87.9,29.7c-1.6,0.7-2.3,1.7-2,3.4c-0.9-1.3-1.8-2.4-3.6-1.9c1.6-0.8,2.3-2,2.1-3.7
			c0.4,0.6,0.7,1.4,1.2,1.7C86.1,29.5,86.9,29.5,87.9,29.7z"/>
		<path fill="#363636" d="M69.5,19.3c-1.4,0.8-2.5,1.7-2,3.5c-0.8-1.2-1.5-2.6-3.4-2c1.3-0.8,2.3-1.7,1.9-3.4
			C66.8,18.7,67.6,19.9,69.5,19.3z"/>
	</g>
</g>
</svg>
