<?xml version="1.0" encoding="utf-8"?>
<!-- Generator: Adobe Illustrator 18.0.0, SVG Export Plug-In . SVG Version: 6.00 Build 0)  -->
<!DOCTYPE svg PUBLIC "-//W3C//DTD SVG 1.1//EN" "http://www.w3.org/Graphics/SVG/1.1/DTD/svg11.dtd">
<svg version="1.1" id="Layer_1" xmlns="http://www.w3.org/2000/svg" xmlns:xlink="http://www.w3.org/1999/xlink" x="0px" y="0px"
	 width="124px" height="99px" viewBox="0 0 124 99" enable-background="new 0 0 124 99" xml:space="preserve">
<path fill="#363636" d="M28.7,13.1c21.6,0,43.2,0,64.8,0c-0.2,2.5-0.4,4.9-0.6,7.4C92.2,27.2,91.7,34,91,40.7
	c-0.6,6.2-1.1,12.4-1.7,18.7c-0.6,6.4-1.1,12.8-1.7,19.1c-0.1,0.6-0.2,0.9-0.9,1.1c-6.5,1.8-12.8,3.6-19.2,5.3
	c-2.2,0.6-4.3,1.3-6.4,1.8c-0.2,0-0.3,0-0.4,0c-0.2-0.1-0.6-0.2-0.8-0.3c-8.2-2.3-16.4-4.6-24.7-6.9c-0.4-0.1-0.8-0.2-0.9-0.8
	c-0.4-5-0.9-10-1.4-15.1c-0.4-4.5-0.8-9.1-1.2-13.6c-0.5-5.2-1-10.4-1.4-15.5c-0.4-4.6-0.8-9.2-1.2-13.8
	C29.1,18.2,28.9,15.7,28.7,13.1z M43.4,55.3c0,0.2,0,0.4,0,0.6c0.3,3.9,0.6,7.8,0.9,11.7c0,0.4,0.2,0.6,0.6,0.6
	c5.3,1.4,10.5,2.9,15.7,4.3c0.2,0.1,0.6,0.1,0.8,0c5.3-1.4,10.5-2.9,15.8-4.3c0.5-0.2,0.6-0.3,0.6-0.8c0.6-7.2,1.3-14.3,2-21.5
	c0.1-1,0.2-1.9,0.2-2.9c-10,0-19.8,0-29.7,0c-0.2-2.8-0.5-5.5-0.7-8.4c10.4,0,20.7,0,31.1,0c0.2-2.7,0.5-5.3,0.7-8
	c-13.6,0-27.1,0-40.7,0c0.7,8.2,1.4,16.3,2.2,24.6c9.5,0,18.8,0,28.2,0c-0.3,3.4-0.6,6.8-1,10.1c0,0.2-0.3,0.4-0.6,0.5
	c-2.7,0.7-5.3,1.4-8.1,2.2c-0.3,0.1-0.6,0.1-0.9,0c-2.7-0.7-5.4-1.4-8.1-2.2c-0.4-0.1-0.6-0.3-0.6-0.7c0-0.7-0.1-1.4-0.2-2.1
	c-0.1-1.3-0.2-2.6-0.4-3.8C48.6,55.3,46,55.3,43.4,55.3z"/>
</svg>
