<?xml version="1.0" encoding="utf-8"?>
<!-- Generator: Adobe Illustrator 18.0.0, SVG Export Plug-In . SVG Version: 6.00 Build 0)  -->
<!DOCTYPE svg PUBLIC "-//W3C//DTD SVG 1.1//EN" "http://www.w3.org/Graphics/SVG/1.1/DTD/svg11.dtd">
<svg version="1.1" id="Layer_1" xmlns="http://www.w3.org/2000/svg" xmlns:xlink="http://www.w3.org/1999/xlink" x="0px" y="0px"
	 width="124px" height="99px" viewBox="0 0 124 99" enable-background="new 0 0 124 99" xml:space="preserve">
<g>
	<g>
		<g>
			<g>
				<path fill="#363636" d="M66.2,87c-0.8-0.2-1.6-0.4-2.4-0.7c-6.4-1.8-10.2-6.2-12-12.3c-1.2-4.2-3.6-6.5-7.7-7.4
					c-1.2-0.3-2.4-0.9-3.6-1.5c-2.3-1.4-3-4-2-6.5c0.6-1.3,1.6-2.2,3-2.3c2.3-0.1,4.7-0.2,7-0.2c1.2,0,1.9-0.3,1.8-1.7
					c-0.1-5.2,0-10.4-0.1-15.6c0-0.7-0.5-1.7-1.2-2.2c-3.2-2.9-4.3-7.4-2.6-11.4c1.5-3.7,5.5-6.1,9.5-5.9c4.3,0.3,7.9,3.1,9,7.4
					c0.9,3.6,0.1,7-2.8,9.5c-1.5,1.3-1.5,2.8-1.2,4.5c5.4-1.1,6.1-0.7,8.6,3.3c0.4-0.2,0.8-0.3,1.2-0.4c2.8-1.1,5.3-0.3,6.7,2.4
					c0.5,1,0.9,1.2,2,0.8c3.6-1.3,7,0.9,7.1,4.7c0.1,6.7,0.2,13.5-0.1,20.2c-0.3,6.9-6.2,13.2-13.4,15c-0.4,0.1-0.7,0.3-1.1,0.4
					C70.2,87,68.3,87,66.2,87z M61.1,53.2c-0.3,0.1-0.5,0.1-0.8,0.2c-0.4-1-1-2-1-2.9c-0.1-6.6,0-13.1-0.1-19.7
					c0-2.2-1.5-3.8-3.5-3.8c-2,0-3.5,1.5-3.6,3.6c0,0.5,0,1,0,1.5c0,7.6,0,15.4,0,23c0,2.6-0.3,2.8-2.8,2.8c-2,0-4.2,0-6.2,0
					c-1.3,0-2.6,0.2-3,1.8c-0.4,1.6-0.1,3,1.5,3.9c1.2,0.7,2.5,1.2,3.9,1.6c4.2,1.1,6.6,3.5,7.8,7.6c1.9,6.5,5.9,10.9,13,12.1
					c9.7,1.6,18.7-5.7,18.9-15.5c0.1-5.9,0-11.8,0-17.7c0-2.2-1.4-3.8-3.4-3.8c-2,0-3.3,1.5-3.3,3.8c0,1.5,0,2.9,0,4.4
					c-0.3,0.1-0.4,0.2-0.7,0.2c-0.4-0.8-0.9-1.5-1-2.3c-0.2-2,0-4-0.1-6c-0.1-2-1.7-3.3-3.6-3.3c-1.9,0-3.1,1.3-3.3,3.4
					c-0.1,1,0,2,0,3c0,1.2,0,2.2,0,3.4c-0.3,0.1-0.5,0.1-0.8,0.2c-0.3-0.7-0.8-1.5-0.8-2.2c-0.1-2.3,0-4.7-0.1-7.1
					c-0.1-2.3-1.7-3.7-3.7-3.6c-1.9,0.2-3.1,1.5-3.2,3.6C61.1,48.1,61.1,50.6,61.1,53.2z"/>
			</g>
		</g>
		<g>
			<path fill="#363636" d="M41.7,28.7c0.2,4.7,1.9,8.3,5.3,11.1c0.2,0.2,0.4,0.3,0.5,0.4c0.4,0.5,0.6,1.2,0.9,1.7
				c-0.6-0.1-1.4,0-1.9-0.3c-3.1-2.2-5.1-5.1-6-8.8c-2-7.6,2-15.5,9.1-18.6c7.3-3,15.5-0.3,19.6,6.5c3.2,5.3,2.8,12.6-1,17.4
				c-0.4,0.4-1.2,0.4-1.7,0.7c0.1-0.6,0-1.2,0.4-1.7c3.5-5.1,3.6-10.9,0.5-15.8c-3-4.8-8.6-7.3-14.4-6.3c-5.4,0.9-9.9,5.3-11.2,11
				C41.7,27.1,41.7,28.1,41.7,28.7z"/>
		</g>
	</g>
</g>
</svg>
