<?xml version="1.0" encoding="utf-8"?>
<!-- Generator: Adobe Illustrator 18.0.0, SVG Export Plug-In . SVG Version: 6.00 Build 0)  -->
<!DOCTYPE svg PUBLIC "-//W3C//DTD SVG 1.1//EN" "http://www.w3.org/Graphics/SVG/1.1/DTD/svg11.dtd">
<svg version="1.1" id="Layer_1" xmlns="http://www.w3.org/2000/svg" xmlns:xlink="http://www.w3.org/1999/xlink" x="0px" y="0px"
	 width="124px" height="99px" viewBox="0 0 124 99" enable-background="new 0 0 124 99" xml:space="preserve">
<g>
	<path fill="#353535" d="M68.6,86.1c0-3.4,0-6.9,0-10.6c12.2,0,24.1,0,35.9,0c0,3.5,0,7.1,0,10.6C92.6,86.1,80.6,86.1,68.6,86.1z"/>
	<path fill="#363636" d="M68.7,56.2c-1.3,0-2.4,0.1-3.6,0c-1.5-0.2-1.8,0.5-1.8,1.8c0.1,5.1,0,10.1,0.1,15.1c0,1.6-0.4,2-2,2.1
		c-9.8,0-19.6,0.2-29.4,0.2c-3.8,0-7.5,0-11.4,0c-0.1-0.7-0.1-1.3-0.1-2c0-19.5,0-39,0-58.5c0-1.6,0.5-2.1,2-2
		c2.7,0.2,5.5,0.1,8.2,0c1.1,0,1.7,0.4,2.1,1.4c2.9,5.9,5.9,11.7,8.7,17.5c0.6,1.2,1.2,1.7,2.6,1.7c4.3-0.1,8.6,0,13-0.1
		c7.3-0.2,11,5.3,11.6,10.5C69,48,68.7,52,68.7,56.2z M60.2,48.1c-2.5,0-5.1,0-7.5,0c-0.2,0-0.7,0.4-0.7,0.6c0.1,0.4,0.3,0.9,0.7,1
		c2.4,0.9,4.8,1.6,7.5,1C60.2,49.8,60.2,49,60.2,48.1z"/>
	<path fill="#2C2C2C" d="M70.6,71.2c0-3.8,0-7.3,0-10.7c0-0.3,0.3-0.7,0.6-1c0.2,0.3,0.7,0.7,0.7,1c0.3,2.9,0.3,2.9,3.3,2.9
		c0.7,0,1.6-0.2,2.3,0.1c2.6,1,1.4,3.3,1.6,5.1c0.2,1.4-0.4,2.5-1.9,2.6C75,71.4,72.9,71.2,70.6,71.2z M74.6,69.9c0.3,0,0.7,0,1,0
		c2,0,2.2-0.2,2.2-2.2c0-3,0-3-3-3c-0.5,0-1,0-1.5,0c-0.9-0.1-1.4,0.2-1.2,1.2c0.1,0.5,0,1,0,1.5C72,69.9,72,69.9,74.6,69.9z"/>
	<path fill="#2C2C2C" d="M97.1,71.2c0-1.7-0.1-3.4,0-5.1c0.1-1.5-0.9-1.2-1.8-1.2c-0.8,0-1.9-0.3-1.8,1.1c0.1,1.5,0.1,2.9,0,4.3
		c0,0.3-0.4,0.7-0.7,1.1c-0.2-0.3-0.6-0.7-0.6-1c-0.1-2.2,0-4.4,0-6.9c3.2,0,6.3-0.1,9.3,0.1c0.6,0,1.5,1.2,1.6,2
		c0.2,1.6,0.1,3.2,0.1,4.8c0,0.3-0.4,0.6-0.7,0.9c-0.2-0.3-0.6-0.7-0.7-1c-0.1-1.3-0.1-2.7,0-4c0.1-1.6-0.9-1.6-2-1.6
		c-1.2-0.1-1.6,0.4-1.5,1.6c0.1,1.3,0,2.7,0.1,4C98.6,71.4,98,71.4,97.1,71.2z"/>
	<path fill="#2C2C2C" d="M89.8,67.9c-2,0-3.9-0.1-5.9,0c-0.4,0-0.9,0.5-1.3,0.8c0.4,0.4,0.8,1.1,1.3,1.1c1.6,0.2,3.2,0,4.8,0.1
		c0.4,0,0.8,0.5,1.2,0.7c-0.4,0.2-0.7,0.6-1.1,0.6c-1.6,0.1-3.2,0.1-4.8,0c-1.9-0.1-2.5-0.8-2.6-2.7c-0.2-5,0-5.1,4.7-5.1
		C89.6,63.5,90.2,64.2,89.8,67.9z M88.8,66.4c-1.1-2.6-3.1-1.3-4.6-1.6c-1-0.2-1.6,0.3-1.5,1.6C84.7,66.4,86.6,66.4,88.8,66.4z"/>
	<rect x="46.3" y="56.1" fill="#707171" width="18.1" height="19.2"/>
</g>
</svg>
