<?xml version="1.0" encoding="utf-8"?>
<!-- Generator: Adobe Illustrator 18.0.0, SVG Export Plug-In . SVG Version: 6.00 Build 0)  -->
<!DOCTYPE svg PUBLIC "-//W3C//DTD SVG 1.1//EN" "http://www.w3.org/Graphics/SVG/1.1/DTD/svg11.dtd">
<svg version="1.1" id="Layer_1" xmlns="http://www.w3.org/2000/svg" xmlns:xlink="http://www.w3.org/1999/xlink" x="0px" y="0px"
	 width="129.3px" height="99px" viewBox="0 0 129.3 99" enable-background="new 0 0 129.3 99" xml:space="preserve">
<path fill="#363636" d="M59.3,12.8C59.3,12.8,59.4,12.8,59.3,12.8c0.1,0.2,0.1,0.4,0.1,0.6c0,2.9,0,5.9,0,8.9c0,1.9,1.3,3.4,3,3.5
	c1.5,0.1,2.8,0,4.3,0c0.2,0,0.3,0,0.5-0.1c1.7-0.4,2.7-1.8,2.7-3.5c0-3.1,0-6.3,0-9.5h0.1c0.1,0.1,0.2,0.1,0.3,0.2
	c7.4,3.2,10.5,12.1,6.9,19.2c-1.6,3-3.9,5.2-7,6.7C70.2,38.9,70,39,70,39.1c0,0.6,0,1.3,0,2c0.2,0,0.3-0.1,0.4-0.1
	c2-0.8,3.9-1,6-0.6c4.2,0.8,7,3.3,8.2,7.5c0.2,0.7,0.2,1.4,0.4,2.2c0,3.5,0,7,0,10.5c0,0.1-0.1,0.2-0.1,0.4
	c-0.2,2.5-2.3,4.6-4.7,4.8c-0.5,0-1,0-1.6,0c1.2,1.4,1.7,2.8,1.6,4.5s-0.9,3.1-2.2,4.2c0.1,0.1,0.2,0.2,0.2,0.2
	c1.7,1.6,2.3,3.5,1.8,5.8c-0.5,2.3-2,3.6-4.1,4.4c-0.4,0.1-0.7,0.2-1.1,0.3c-4.8,0-9.5,0-14.3,0c-0.1,0-0.2-0.1-0.3-0.1
	c-0.7-0.1-1.3-0.1-2-0.3c-4.4-0.9-8-3.2-10.6-6.9c-2-2.7-2.9-5.7-3-9c-0.1-2.3,0-4.5,0-6.9c0-1.3,0.1-2.6,0.4-3.8
	c1.8-6.5,5.8-10.7,12.3-12.6c0.7-0.2,1.4-0.3,2.2-0.5c0-0.1,0-0.2,0-0.4c0-1.8,0-3.5,0-5.3c0-0.3-0.1-0.4-0.4-0.6
	c-5.8-2.5-9.3-8.6-8.3-14.9c0.7-4.6,3.1-8.1,7.1-10.3C58.3,13.3,58.8,13,59.3,12.8z M67.3,82.2L67.3,82.2c2.2,0,4.3,0,6.5,0
	c1,0,2-0.3,2.7-1.1c0.9-1.1,1.2-2.3,0.6-3.5c-0.6-1.3-1.6-2-3-2c-1.9,0-3.8,0-5.7,0c-1.8,0-3.6,0-5.4,0c-0.8,0-1.3-0.6-1.4-1.3
	c-0.1-0.7,0.4-1.3,1.1-1.5c0.2,0,0.4,0,0.6,0c3.6,0,7.4,0,11,0c1.8,0,3.1-1.8,3-3.4c-0.2-1.8-1.6-3-3.3-3c-3.6,0-7.3,0-10.9,0
	c-0.8,0-1.3-0.5-1.4-1.3c-0.1-0.7,0.3-1.4,1-1.6c0.2-0.1,0.5-0.1,0.7-0.1c3.5,0,7.2,0,10.7,0c2.3,0,3.8-2,3.2-4.1
	C76.8,57.8,75.6,57,74,57c-3.5,0-7.1,0-10.6,0c-0.2,0-0.4,0-0.5,0c-0.8-0.1-1.4-0.9-1.2-1.6c0.1-0.8,0.7-1.2,1.5-1.2
	c3.1,0,6.2,0,9.3,0c0.6,0,1.3,0,1.9,0c2-0.1,3.3-2.1,2.8-3.9c-0.4-1.6-1.7-2.6-3.2-2.6c-4.1,0-8.2,0-12.3,0c-1.2,0-2.3,0.1-3.4,0.4
	c-5.8,1.3-10.5,6.2-11,12.5c-0.2,2.7-0.1,5.4-0.1,8.1c0,0.5,0,0.9,0.1,1.4c0.6,3.4,2.1,6.4,4.7,8.6c2.5,2.2,5.4,3.3,8.7,3.4
	C63.1,82.2,65.3,82.2,67.3,82.2z M67.9,44.8L67.9,44.8c0.1,0.1,0.3,0.1,0.4,0.1c1.9,0,3.7,0,5.6,0c0.4,0,0.8,0,1.1,0.1
	c4.4,0.6,6.7,5.8,4,9.4c-0.3,0.4-0.7,0.8-1,1.2c2.2,2,2.7,4.4,1.6,7.2c1.5-0.2,2.5-1.3,2.5-2.7c0-3.2,0-6.5,0-9.7
	c0-0.7-0.1-1.3-0.3-2c-0.9-3.2-3.6-5.4-7.2-5.4c-0.8,0-1.6,0.1-2.4,0.3C70.8,43.6,69.4,44.2,67.9,44.8z"/>
</svg>
