<?xml version="1.0" encoding="utf-8"?>
<!-- Generator: Adobe Illustrator 18.0.0, SVG Export Plug-In . SVG Version: 6.00 Build 0)  -->
<!DOCTYPE svg PUBLIC "-//W3C//DTD SVG 1.1//EN" "http://www.w3.org/Graphics/SVG/1.1/DTD/svg11.dtd">
<svg version="1.1" id="Layer_1" xmlns="http://www.w3.org/2000/svg" xmlns:xlink="http://www.w3.org/1999/xlink" x="0px" y="0px"
	 width="129.3px" height="99px" viewBox="0 0 129.3 99" enable-background="new 0 0 129.3 99" xml:space="preserve">
<g>
	<path fill="#363636" d="M70.8,13.6c1.8,0.4,3.3,1.2,4,2.9c0.4,0.9,0.6,1.9,0.6,2.8c0,11.4,0,23,0,34.4c0,0.3,0,0.6,0,0.9
		c0.9-0.1,1.7-0.2,2.5-0.3c8-0.7,15.4,5.3,16.4,13.3c1.1,8.2-4.1,15.6-12.2,17.4c-0.6,0.1-1.2,0.2-1.9,0.4c-0.9,0-1.9,0-2.8,0
		c-1.3-0.4-2.7-0.7-4.1-1c-0.1,0-0.3,0-0.4,0.1c-0.8,0.3-1.4,0.7-2.2,0.9c-10.6,0-21.1,0-31.7,0c-0.8-0.4-1.7-0.6-2.4-1.1
		c-1.6-1.1-2.2-2.7-2.2-4.7c0-17.2,0-34.4,0-51.5c0-2.9,0-5.9,0-8.8c0-1.4,0.4-2.6,1.2-3.8c0.9-1,2-1.5,3.3-1.9
		C49.9,13.6,60.4,13.6,70.8,13.6z M37.3,23.1c0,15.2,0,30.2,0,45.4c8.8,0,17.5,0,26.3,0c0-0.1,0.1-0.2,0.1-0.3
		c0.8-5.9,3.8-10,9.1-12.6c0.5-0.3,0.5-0.6,0.5-0.9c0-10.2,0-20.5,0-30.7c0-0.3,0-0.5,0-0.8C61.1,23.1,49.2,23.1,37.3,23.1z
		 M65.9,69.8c0,7.3,6,13.1,13.1,13.1c7.3,0,13.1-6,13.1-13.1c0-7.3-6-13.2-13.2-13.1C71.8,56.7,65.9,62.6,65.9,69.8z M37.2,71
		c0,3,0,6,0,8.9c0,1.8,1.2,3,3,3c9.9,0,19.8,0,29.7,0c0.2,0,0.4,0,0.8-0.1C66.4,79.9,64,76,63.5,71C54.8,71,46.1,71,37.2,71z
		 M73.1,20.7c0-0.4,0-0.8,0-1c0-2.6-1-3.7-3.6-3.7c-9,0-18,0-26.9,0c-0.9,0-1.6,0-2.5,0c-1.2,0-2.4,0.8-2.6,1.9
		c-0.2,0.9-0.2,1.9-0.3,2.8C49.2,20.7,61.1,20.7,73.1,20.7z"/>
	<path fill="#363636" d="M78.6,72.7c0.2-0.3,0.3-0.5,0.5-0.7c1.9-2.7,3.8-5.5,5.7-8.2c0.1-0.2,0.3-0.4,0.4-0.6
		c0.6-0.7,1.1-0.9,1.7-0.5c0.7,0.4,0.8,1.1,0.2,1.8c-2.4,3.5-4.8,6.9-7.2,10.3c-0.6,0.9-1.2,0.9-2,0.3c-1.8-1.5-3.6-2.9-5.4-4.4
		c-0.7-0.6-0.8-1.2-0.3-1.8c0.5-0.6,1.1-0.6,1.8-0.1C75.5,70.2,77,71.4,78.6,72.7z"/>
	<path fill="#363636" d="M55.2,81.7c-2.6,0-4.7-2.1-4.7-4.7c0-2.6,2.1-4.7,4.7-4.8c2.6,0,4.8,2.2,4.8,4.8
		C59.9,79.5,57.8,81.7,55.2,81.7z M55.2,79.4c1.3,0,2.4-1,2.4-2.4s-1.1-2.5-2.5-2.4c-1.3,0-2.4,1.1-2.4,2.5
		C52.8,78.3,53.8,79.4,55.2,79.4z"/>
	<path fill="#363636" d="M52.7,19.5c-0.8,0-1.4,0-2.2,0c-0.9,0-1.4-0.6-1.4-1.2c0-0.7,0.6-1.1,1.4-1.1c1.5,0,2.9,0,4.4,0
		c0.9,0,1.3,0.5,1.3,1.1c0,0.7-0.5,1.1-1.3,1.2C54.2,19.5,53.5,19.5,52.7,19.5z"/>
	<path fill="#363636" d="M59.3,17.2c0.1,0,0.3,0,0.4,0c0.9,0,1.3,0.5,1.3,1.2c0,0.7-0.5,1.1-1.3,1.2c-0.4,0-0.8,0-1.1,0
		c-0.7-0.1-1.1-0.6-1-1.2c0-0.7,0.5-1,1.1-1.1C58.9,17.2,59.1,17.2,59.3,17.2L59.3,17.2z"/>
</g>
</svg>
