<?xml version="1.0" encoding="utf-8"?>
<!-- Generator: Adobe Illustrator 18.0.0, SVG Export Plug-In . SVG Version: 6.00 Build 0)  -->
<!DOCTYPE svg PUBLIC "-//W3C//DTD SVG 1.1//EN" "http://www.w3.org/Graphics/SVG/1.1/DTD/svg11.dtd">
<svg version="1.1" id="Layer_1" xmlns="http://www.w3.org/2000/svg" xmlns:xlink="http://www.w3.org/1999/xlink" x="0px" y="0px"
	 width="129.3px" height="99px" viewBox="0 0 129.3 99" enable-background="new 0 0 129.3 99" xml:space="preserve">
<g>
	<path fill="#363636" d="M25.5,84.3c0-22.9,0-45.9,0-68.9c0.4-0.4,0.9-0.9,1.4-1.4c25.2,0,50.4,0,75.6,0c0.4,0.4,0.9,0.9,1.4,1.4
		c0,22.9,0,45.9,0,68.9c-0.4,0.4-0.9,0.9-1.4,1.4c-25.2,0-50.4,0-75.6,0C26.3,85.2,25.9,84.7,25.5,84.3z M64.7,25.8
		c-12.1,0-24,0-36.1,0c-0.8,0-1.1,0.3-1.1,1.1c0,18.5,0,37,0,55.5c0,0.8,0.2,1.1,1.1,1.1c24,0,48,0,72,0c0.8,0,1.1-0.3,1.1-1.1
		c0-18.5,0-37,0-55.5c0-0.8-0.2-1.1-1.1-1.1C88.7,25.8,76.7,25.8,64.7,25.8z"/>
	<path fill="#7E8080" d="M66.6,31c1.7,0.3,3.5,0.5,5.2,0.9c5.8,1.3,11.5,4.8,15.4,9.3c-2.8,2.2-5.6,4.3-8.3,6.5
		c-6.8-6.1-14.4-7.9-22.7-3.9c-7,3.4-10.6,9.4-10.9,17.3c-3.6,0-7.1,0-10.7,0c0-0.7,0-1.3,0-1.9c0.2-1.1,0.3-2.2,0.5-3.3
		c2-11.7,11-21.3,22.6-23.9c1.7-0.4,3.4-0.6,5.1-0.8C63.9,31,65.2,31,66.6,31z"/>
	<path fill="#353535" d="M94.7,59.3c0,0.6,0,1.2,0,1.7c-3.6,0-7.1,0-10.7,0c0-4.8-1.7-9.1-4.8-12.7C79,48,78.8,48,78.7,47.8
		c0-0.1,0-0.1,0-0.2c2.8-2.1,5.6-4.3,8.5-6.5c0.2,0.2,0.3,0.3,0.3,0.4c3.3,3.8,5.4,8.2,6.5,13.2C94.3,56.3,94.5,57.7,94.7,59.3z"/>
	<path fill="#070909" d="M58.6,65c0.3-0.3,0.5-0.8,0.8-1c9.2-7.6,18.3-15.1,27.5-22.7c0.1-0.1,0.3-0.2,0.5-0.2
		c-0.5,0.6-1,1.2-1.5,1.8C78.7,51.3,71.4,59.7,64.2,68c-0.3,0.3-0.8,0.6-1.1,0.8c-0.7,0-1.4,0-2,0c-1.4-0.4-2.2-1.4-2.4-2.8
		C58.6,65.7,58.6,65.4,58.6,65z"/>
	<circle fill="#323232" cx="65.1" cy="62.1" r="4.9"/>
	<circle fill="#7E8080" cx="65.1" cy="62.1" r="3"/>
</g>
</svg>
