<?xml version="1.0" encoding="utf-8"?>
<!-- Generator: Adobe Illustrator 18.0.0, SVG Export Plug-In . SVG Version: 6.00 Build 0)  -->
<!DOCTYPE svg PUBLIC "-//W3C//DTD SVG 1.1//EN" "http://www.w3.org/Graphics/SVG/1.1/DTD/svg11.dtd">
<svg version="1.1" id="Layer_1" xmlns="http://www.w3.org/2000/svg" xmlns:xlink="http://www.w3.org/1999/xlink" x="0px" y="0px"
	 width="113.2px" height="99px" viewBox="0 0 113.2 99" enable-background="new 0 0 113.2 99" xml:space="preserve">
<g>
	<path fill="#363636" d="M68.6,13.7c0.7,0.2,1.4,0.3,2.2,0.6c1.2,0.4,1.9,1.3,1.9,2.6c0,1.4,0.2,2.5,1.8,3.1
		c0.9,0.3,1.6,0.9,2.7,0.3c2.1-1.2,3.1-1.2,5,1c1.1,1.2,1.9,2.7,2.2,4.4c0.3,1.4,0,2.6-1.3,3.3c-1.2,0.7-1.8,1.6-1.7,3.2
		c0.1,1.2,0.3,1.9,1.3,2.6c1.9,1.2,2.2,2.2,1.5,4.4c-0.5,1.4-1.2,2.7-2.2,3.7c-0.5,0.5-0.6,0.9-0.3,1.6c1.4,3.8,1.8,7.8,1.5,11.9
		c-0.1,0.7-0.2,1.5-0.2,2.2c0.9,0,1.8,0.1,2.7,0c0.7-0.1,1.2-0.8,1.2-1.6c0-2.6,0-5.1,0-7.7c0-0.8-0.6-1.3-1.2-1.7
		c-0.8-0.4-1.2-1.2-0.9-2c0.2-0.8,1.2-1.3,2.2-1c2.1,0.7,3.2,2.2,3.3,4.5c0.1,2.7,0.1,5.6-0.1,8.3c-0.2,2.5-2.2,4.4-4.7,4.5
		c-1,0.1-2.1,0-3.2,0c-0.4,1-0.7,2-1.2,3c-2.7,6-7,10.5-12.9,13.4c-1.2,0.6-2.5,1-3.7,1.6c-0.2,0.1-0.5,0.3-0.5,0.5
		c-0.5,2.3-1.9,3.8-4.2,4.4c-0.1,0-0.1,0.1-0.2,0.1c-2.2,0-4.6,0-6.8,0c-1.2-0.3-2.3-0.7-3.2-1.7c-1.4-1.6-1.8-3.4-1-5.4
		c0.7-1.9,2.2-3.2,4.2-3.3c2.2-0.2,4.4-0.2,6.6-0.1c1.5,0.1,2.7,0.8,3.7,2.1c0.2,0.3,0.4,0.3,0.8,0.2c9.2-3.3,14.6-9.8,16.2-19.4
		c0.7-4.3,0.2-8.6-1.5-12.7c-0.1-0.3-0.5-0.5-0.8-0.7c-0.9-0.7-1.8-0.7-2.7,0.2c-0.1,0.1-0.2,0.2-0.4,0.2c-1,0.3-1.4,0.9-1.5,2.1
		c-0.2,2.7-0.9,3.4-3.7,3.8c-1.7,0.2-3.4,0.2-5.1-0.5c-1-0.4-1.7-1.2-1.7-2.3c0-0.6-0.2-1.1-0.2-1.7c0-0.6-0.2-0.8-0.7-1.1
		c-0.7-0.3-1.2-0.7-1.9-1.1c-0.2-0.1-0.6-0.2-0.8-0.1c-0.6,0.2-1.2,0.5-1.7,0.7c-1.3,0.4-2.2,0.2-3.2-0.4c-2.1-1.6-3.2-3.7-3.6-6.3
		c-0.2-0.9,0.2-1.7,1.1-2.3c0.6-0.4,1.2-0.7,1.7-1.2c0.2-0.2,0.3-0.5,0.3-0.8c0.1-0.7,0-1.6,0-2.3c0-0.4-0.1-0.7-0.4-0.9
		c-0.4-0.2-0.7-0.6-1.2-0.8c-1.4-0.9-1.7-1.8-1.3-3.6c0.5-1.9,1.5-3.7,2.9-5c1-1,2.2-1.3,3.6-0.6c1.2,0.7,2.2,0.8,3.6-0.1
		c0.9-0.7,1.5-1.2,1.6-2.3c0-2.2,0.7-3.1,3.3-3.7c0.2-0.1,0.4-0.1,0.7-0.2C66.8,13.7,67.7,13.7,68.6,13.7z M55.3,41.2
		c1.1-0.5,1.9-0.8,2.7-1.2c0.8-0.4,1.5-0.2,2.2,0.2c1.1,0.7,2.2,1.3,3.2,1.9c0.8,0.4,1.3,1,1.4,1.9c0.1,0.7,0.1,1.5,0.2,2.2
		c0,0.2,0.3,0.6,0.5,0.6c1,0.1,2,0.1,3.1,0c0.3,0,0.5-0.2,0.6-0.7c0.1-0.8,0.2-1.6,0.2-2.4c0.1-0.8,0.5-1.2,1.2-1.7
		c1.2-0.7,2.4-1.3,3.5-2c0.7-0.4,1.3-0.6,2.1-0.2c0.7,0.3,1.5,0.7,2.2,1c0.3,0.2,0.6,0.2,0.8-0.2c0.5-0.8,1-1.7,1.5-2.6
		c0.2-0.4,0.1-0.6-0.2-0.8c-0.7-0.4-1.3-0.9-2-1.4c-0.7-0.5-0.8-1.1-0.7-1.9c0.1-1.2,0.1-2.6,0-3.8c-0.1-0.9,0.2-1.5,0.8-2.1
		c0.7-0.5,1.3-0.9,2-1.4c0.2-0.2,0.3-0.5,0.2-0.7c-0.5-0.9-1-1.8-1.6-2.7c-0.2-0.2-0.6-0.2-0.8-0.2c-0.8,0.3-1.6,0.7-2.3,1
		c-0.7,0.3-1.2,0.2-1.9-0.2c-1.2-0.7-2.4-1.5-3.7-2.2c-0.7-0.3-1-0.7-1.1-1.5c-0.1-0.8-0.2-1.7-0.2-2.5c0-0.4-0.2-0.7-0.6-0.7
		c-1,0-2,0-3,0c-0.4,0-0.6,0.3-0.6,0.7c-0.1,0.7-0.2,1.5-0.2,2.2c-0.1,0.9-0.6,1.4-1.3,1.8c-1.1,0.5-2.2,1.2-3.2,1.8
		c-0.8,0.6-1.5,0.7-2.4,0.2c-0.8-0.4-1.7-0.7-2.5-1.1c-0.8,0.9-1.5,1.9-1.8,3.1c-0.1,0.2,0.1,0.5,0.2,0.7c0.7,0.5,1.3,1,2,1.4
		c0.7,0.5,0.9,1.1,0.9,2c-0.1,1.3-0.1,2.7,0,4c0,0.8-0.2,1.5-0.9,2c-0.7,0.5-1.5,1.1-2.4,1.7C54,38.9,54.7,40.1,55.3,41.2z
		 M55.6,81.6L55.6,81.6c0.8,0,1.7,0,2.5,0c1.3,0,2.2-0.8,2.2-2.1c0-1.1-0.9-1.9-2.2-1.9c-1.7,0-3.4,0-5.1,0c-1.2,0-2.1,0.8-2.1,1.9
		c0,1.2,0.8,2,2.1,2.1C53.9,81.7,54.7,81.6,55.6,81.6z"/>
	<path fill="#363636" d="M28.2,58.7c0-1.3,0-2.7,0-3.9c-0.1-3.7,0.4-7.3,1.7-10.7c2.7-7.1,7.6-12.2,14.5-15.5
		c0.5-0.2,1.1-0.5,1.6-0.6c0.7-0.2,1.5,0.2,1.7,1s0,1.5-0.7,1.9c-0.8,0.4-1.7,0.7-2.6,1.2c-7.2,3.9-11.6,10-12.8,18.2
		c-0.3,2.4-0.2,4.9-0.2,7.3c0,0.8,0,1.7,0,2.6c0,0.9-0.6,1.7-1.4,1.7c-1.7,0.1-3.4,0.2-5.1-0.2c-2.2-0.4-3.6-2.2-3.7-4.7
		c-0.1-2.7-0.1-5.5,0.1-8.2c0.1-2,1.3-3.3,3.2-4.1c0.9-0.3,1.8,0,2.2,0.8c0.4,0.8,0.1,1.7-0.8,2.2c-1.1,0.5-1.4,1.2-1.4,2.4
		c0.1,2.2,0,4.4,0,6.6c0,1.3,0.7,2.1,2.1,2.1C27.1,58.7,27.6,58.7,28.2,58.7z"/>
	<path fill="#363636" d="M73.6,32c0,3.4-2.8,6.2-6.2,6.2c-3.4,0-6.2-2.9-6.2-6.2c0.1-3.4,2.8-6.2,6.2-6.2
		C70.7,25.8,73.6,28.7,73.6,32z M67.3,29.1c-1.7,0-3,1.3-3,2.9c0,1.7,1.3,3,2.9,3c1.6,0,2.9-1.2,2.9-2.9
		C70.2,30.4,69,29.1,67.3,29.1z"/>
</g>
</svg>
