<?xml version="1.0" encoding="utf-8"?>
<!-- Generator: Adobe Illustrator 18.0.0, SVG Export Plug-In . SVG Version: 6.00 Build 0)  -->
<!DOCTYPE svg PUBLIC "-//W3C//DTD SVG 1.1//EN" "http://www.w3.org/Graphics/SVG/1.1/DTD/svg11.dtd">
<svg version="1.1" id="Layer_1" xmlns="http://www.w3.org/2000/svg" xmlns:xlink="http://www.w3.org/1999/xlink" x="0px" y="0px"
	 width="129.3px" height="99px" viewBox="0 0 129.3 99" enable-background="new 0 0 129.3 99" xml:space="preserve">
<g>
	<rect x="23.4" y="15.6" fill="none" stroke="#363636" stroke-width="3" stroke-miterlimit="10" width="39.4" height="25.9"/>
	<polygon fill="#363636" points="38.3,42.2 38.3,47.3 35.9,47.3 33.3,48.5 33.3,49.8 52.7,49.8 52.7,48.6 49.9,47.1 47.5,47.1 
		47.5,41.9 	"/>
	<rect x="66.2" y="52" fill="none" stroke="#363636" stroke-width="3" stroke-miterlimit="10" width="39.4" height="25.9"/>
	<polygon fill="#363636" points="81.1,78 81.1,83 78.6,83 76,84.2 76,85.5 95.5,85.5 95.5,84.3 92.7,82.8 90.2,82.8 90.2,77.6 	"/>
	<g>
		<g>
			<circle fill="#363636" cx="41.1" cy="59.2" r="2.3"/>
			<circle fill="#363636" cx="41.1" cy="66.6" r="2.3"/>
			<circle fill="#363636" cx="41.1" cy="73.9" r="2.3"/>
			<circle fill="#363636" cx="48.5" cy="73.9" r="2.3"/>
			<circle fill="#363636" cx="55.8" cy="73.9" r="2.3"/>
		</g>
	</g>
	<g>
		<g>
			<circle fill="#363636" cx="88.4" cy="41.7" r="2.3"/>
			<circle fill="#363636" cx="88.4" cy="34.2" r="2.3"/>
			<circle fill="#363636" cx="88.3" cy="26.9" r="2.3"/>
			<circle fill="#363636" cx="80.9" cy="27" r="2.3"/>
			<circle fill="#363636" cx="73.6" cy="27" r="2.3"/>
		</g>
	</g>
</g>
</svg>
