<?xml version="1.0" encoding="utf-8"?>
<!-- Generator: Adobe Illustrator 18.0.0, SVG Export Plug-In . SVG Version: 6.00 Build 0)  -->
<!DOCTYPE svg PUBLIC "-//W3C//DTD SVG 1.1//EN" "http://www.w3.org/Graphics/SVG/1.1/DTD/svg11.dtd">
<svg version="1.1" id="Layer_1" xmlns="http://www.w3.org/2000/svg" xmlns:xlink="http://www.w3.org/1999/xlink" x="0px" y="0px"
	 width="166.8px" height="99px" viewBox="0 0 166.8 99" enable-background="new 0 0 166.8 99" xml:space="preserve">
<g>
	<path fill="#363636" d="M158.5,82.7c-0.6,1.3-1.3,2.5-3,2.6c-1.3,0.1-2.4-0.3-3.3-1.1c-4.4-4.1-8.8-8.1-13.2-12.3
		c-0.4-0.4-0.6-1-0.9-1.5c-0.4-0.6-0.6-1.4-1.1-1.9c-2.5-2.4-5.1-4.8-7.6-7.3c-0.5-0.5-0.8-0.5-1.3-0.1c-3.1,2.4-6.6,4.1-10.7,5
		c-5.5,1.3-11,0.8-16.2-1.5c-6-2.6-10.5-6.9-13.4-12.8c-3.3-6.6-3.6-13.5-1.3-20.4C89,25,93.3,20.2,99.1,16.8
		c5-2.8,10.5-3.8,16.2-2.9c9.3,1.4,16.2,6.4,20.3,14.8c3.4,6.9,3.6,14,0.9,21.2c-1,2.6-2.6,5-4.1,7.8c1.1,1,2.5,2.4,3.9,3.6
		c1.4,1.3,2.6,2.5,4,3.8c0.5,0.5,1.3,0.6,1.9,1s1.4,0.5,1.9,1c4.3,3.9,8.5,7.9,12.7,11.9c0.8,0.6,1.1,1.6,1.8,2.4
		C158.5,81.7,158.5,82.2,158.5,82.7z M111.9,20.7c-10.8-0.1-19.7,8.8-19.7,19.5c0,10.7,8.6,19.5,19.3,19.5
		c10.9,0.1,19.8-8.5,19.9-19.4C131.6,29.6,122.8,20.8,111.9,20.7z"/>
	<path fill="#363636" d="M8.3,60.5c0.5-1.8,1-3.4,1.4-5.1c0.3-0.9,0.5-1.8,0.6-2.5c2.6,0.8,5,1.5,7.5,2.1c2.8,0.6,5.5,0.8,8.1-0.3
		c1.6-0.6,2.9-1.8,3.1-3.6c0.4-1.9-0.3-3.4-1.9-4.4c-1.6-1-3.4-1.8-5.1-2.6c-2.6-1.3-5.4-2.4-7.8-3.9c-7.5-4.9-7-15-0.9-19.9
		c3.1-2.5,6.6-3.5,10.5-3.8c4.4-0.4,8.5,0.1,12.7,1.6c0.4,0.1,0.8,0.4,1.4,0.6c-0.8,2.8-1.5,5.5-2.3,8.4c-3-1.4-6.1-2.1-9.4-2.1
		c-1.3,0-2.6,0.3-3.9,0.6c-1.8,0.5-2.9,1.6-3.1,3.5c-0.1,2,1,3.4,2.6,4.1c2.8,1.3,5.5,2.4,8.3,3.6c2.8,1.3,5.4,2.9,7.3,5.4
		c2.5,3.5,2.9,7.4,1.8,11.4c-1.4,4.6-4.8,7.4-9.1,8.9c-7.1,2.3-14.2,1.6-20.9-1.1c-0.3-0.1-0.6-0.3-0.9-0.4
		C8.3,61,8.3,60.8,8.3,60.5z"/>
	<path fill="#363636" d="M57.5,25.8c0,3.1,0,6,0,8.9c0,0.9,0.6,0.8,1.1,0.8c4.8,0,9.6,0,14.4,0c1.1,0,1.5,0.3,1.5,1.5
		c-0.1,2.3,0,4.5,0,7c-5.6,0-11.3,0-16.9,0c0,3.8,0,7.3,0,11c6.3,0,12.5,0,18.9,0c0,2.8,0,5.4,0,8c0,0.3-0.6,0.6-1,0.6
		c-2.5,0-5,0-7.5,0c-6.4,0-12.8,0-19.2,0c-0.5,0-0.9,0-1.5,0c0-15.4,0-30.7,0-46c9.4,0,18.8,0,28.3,0c0,2.8,0,5.5,0,8.4
		C69.4,25.8,63.6,25.8,57.5,25.8z"/>
</g>
</svg>
