<?xml version="1.0" encoding="utf-8"?>
<!-- Generator: Adobe Illustrator 18.0.0, SVG Export Plug-In . SVG Version: 6.00 Build 0)  -->
<!DOCTYPE svg PUBLIC "-//W3C//DTD SVG 1.1//EN" "http://www.w3.org/Graphics/SVG/1.1/DTD/svg11.dtd">
<svg version="1.1" id="Layer_1" xmlns="http://www.w3.org/2000/svg" xmlns:xlink="http://www.w3.org/1999/xlink" x="0px" y="0px"
	 width="113.2px" height="99px" viewBox="0 0 113.2 99" enable-background="new 0 0 113.2 99" xml:space="preserve">
<path fill="#363636" d="M108.8,44c-0.1,0.7-0.3,1.4-0.4,2.1c-1.1,5.2-3.8,9.6-7.6,13.3c-4.6,4.4-10.1,7-16.4,8.2
	c-1.8,0.3-3.6,0.4-5.4,0.6c-0.5,0-0.9,0.2-1.3,0.5c-3.8,2.8-7.5,5.5-11.3,8.3c-0.6,0.4-1.2,0.6-1.8,0.3c-0.8-0.3-1.3-1.1-1.1-2.1
	c0.5-3.1,1-6.2,1.5-9.4c-1.1-0.5-2.1-1-3.2-1.5c-3.5,4.7-8.1,8.1-13.5,10.2c0.3,1.9,0.6,3.9,0.9,5.8c0.2,1.2,0.4,2.4,0.6,3.6
	c0.1,0.8-0.1,1.5-0.8,1.9c-0.6,0.4-1.4,0.3-2.1-0.2c-3.7-2.7-7.5-5.5-11.2-8.2c-0.5-0.4-1-0.5-1.5-0.5c-3-0.1-6-0.6-8.9-1.5
	c-6.4-2-11.7-5.4-15.8-10.8C6.9,61.2,5.2,57.3,4.7,53c-0.9-6.7,0.8-12.8,4.9-18.2c4.2-5.5,9.8-9,16.4-11c3.7-1.1,7.4-1.5,11.2-1.3
	c5,0.2,9.7,1.4,14.2,3.7c0.1,0,0.2,0.1,0.2,0.1c0.8-0.9,1.5-1.9,2.3-2.7c4.3-4.6,9.6-7.4,15.7-8.9c3.7-0.9,7.5-1.2,11.3-0.9
	c7.8,0.7,14.7,3.5,20.4,9.1c3.9,3.8,6.5,8.4,7.5,13.9c0.1,0.4,0.1,0.7,0.2,1.1C108.8,40,108.8,42,108.8,44z M45.4,80.4
	c0-0.2,0-0.3,0-0.4c-0.2-1.6-0.4-3.2-0.8-4.8c-0.4-2.2,0.6-3.2,2.2-3.9c5-1.9,9.2-4.9,12.2-9.3c4.7-6.9,5.3-14.2,1.6-21.7
	c-2.5-5.1-6.6-8.6-11.7-11C42,26,34.8,25.4,27.4,27.2c-5.8,1.5-10.9,4.5-14.8,9.3c-4.5,5.6-6,12-4,18.9c1.4,5.3,4.6,9.3,8.9,12.4
	c5.1,3.7,10.8,5.4,17.1,5.7c1,0,1.9,0.3,2.7,0.9c2.6,1.9,5.2,3.8,7.8,5.7C45.1,80.2,45.3,80.3,45.4,80.4z M67.6,71.6
	c0.2-0.2,0.3-0.2,0.5-0.3c2.6-1.9,5.2-3.8,7.7-5.7c0.8-0.6,1.8-1,2.8-1c3.4-0.1,6.6-0.7,9.8-1.8c5.5-2,10.1-5.3,13.3-10.2
	c3.2-4.9,4.3-10.2,3.1-15.9c-1.1-5.2-4-9.4-8.1-12.7c-4.7-3.8-10-5.8-16-6.4c-3.9-0.4-7.7-0.1-11.5,1c-5.7,1.6-10.5,4.5-14.3,9.1
	c-0.2,0.2-0.3,0.4-0.5,0.6c1.3,1.1,2.6,2,3.8,3.1c4.6,4.4,7.5,9.7,8.2,16.1c0.4,3.5-0.1,6.9-1.2,10.2c-0.4,1.2-1,2.4-1.5,3.7
	c1,0.4,2.1,0.9,3.1,1.3c1.2,0.5,1.9,1.5,1.7,2.8c-0.1,1.1-0.3,2.2-0.5,3.4C67.9,69.7,67.8,70.6,67.6,71.6z"/>
<path fill="#363636" d="M39.1,49.8c-0.9,1.9-1.9,3.7-3.1,5.3c-1.4,1.9-3.1,3.7-5.2,4.9c-1.2,0.7-2.5,1.3-3.9,1.4
	c-1.8,0.2-3.4-0.4-4.6-1.8c-2-2.4-1.9-5.2,0-7.5c1.3-1.6,3-2.7,4.9-3.5c0.5-0.2,0.6-0.5,0.6-1c0-1.4,0.1-2.7,0.1-4.1
	c-0.6-0.1-1.2-0.1-1.8-0.2c-1-0.2-2-0.4-2.9-0.6c-1-0.3-1.5-1.3-1.2-2.2s1.2-1.4,2.2-1.1c1.3,0.4,2.7,0.5,4,0.6
	c0.3,0,0.4-0.1,0.5-0.4c0.2-0.8,0.4-1.6,0.7-2.5c0.3-1,1.3-1.5,2.2-1.2c0.9,0.3,1.4,1.2,1.2,2.2c-0.1,0.5-0.3,1-0.5,1.6
	c0.6-0.1,1.2-0.1,1.8-0.2c2.7-0.4,5.4-1,8-1.7c1-0.3,2,0.2,2.2,1.2c0.3,1-0.2,2-1.3,2.2c-2.5,0.6-5,1.2-7.6,1.7
	c-1.3,0.3-2.6,0.3-4,0.5c-0.1,1.1-0.2,2.3-0.3,3.5c1-0.2,1.9-0.5,2.9-0.6c0.7-0.1,1.5-0.2,2.3-0.2c0.3,0,0.4-0.1,0.5-0.3
	c0.1-0.4,0.2-0.7,0.4-1.1c0.3-0.9,1.3-1.4,2.2-1.1c0.9,0.3,1.4,1.2,1.2,2.2c-0.1,0.2-0.1,0.5-0.2,0.8c0.3,0.1,0.6,0.2,0.9,0.3
	c2.7,1,4.7,2.8,5.4,5.7c0.7,3.4-0.3,6.3-3.2,8.3c-1.9,1.4-4.1,2.2-6.4,2.5c-0.9,0.1-1.8-0.5-2-1.4c-0.2-1,0.4-1.8,1.4-2
	c1.3-0.2,2.5-0.5,3.6-1.1c0.7-0.4,1.4-0.8,2-1.3c1.9-1.7,1.7-4.7-0.3-6.3C41,50.4,40.1,50,39.1,49.8z M28.1,52.1
	c-1.1,0.6-2.3,1.3-3.2,2.5c-0.1,0.2-0.2,0.3-0.3,0.5C24,56.5,25,58,26.5,57.9c1,0,1.8-0.5,2.6-1c0.1-0.1,0.1-0.3,0.1-0.4
	C28.9,55,28.5,53.6,28.1,52.1z M35.2,49.8c0-0.1-0.1-0.1-0.1-0.2c-1.2,0.3-2.4,0.6-3.6,0.9c0.3,1.2,0.5,2.4,0.7,3.5
	c0.1,0,0.1,0,0.2,0.1C33.3,52.7,34.3,51.2,35.2,49.8z"/>
<path fill="#363636" d="M82.2,45.4c-0.1,0-0.2,0-0.4,0c-2.1,0-4.3,0-6.5,0c-0.5,1.4-0.9,2.7-1.4,4c-0.2,0.6-0.4,1.2-0.6,1.7
	c-0.4,1-1.3,1.5-2.3,1.2C70.1,52,69.6,51,69.9,50c2.3-7,4.7-14,7-21c0.3-0.9,0.9-1.3,1.7-1.3c0.8,0,1.4,0.5,1.7,1.4
	c1.9,5.7,3.8,11.3,5.7,17c0.4,1.3,0.9,2.6,1.3,3.8c0.4,1.1-0.1,2.1-1.1,2.4c-1,0.3-1.9-0.2-2.3-1.2c-0.6-1.8-1.2-3.6-1.8-5.3
	C82.3,45.7,82.2,45.6,82.2,45.4z M78.8,35.4L78.8,35.4c-0.8,2.2-1.6,4.3-2.3,6.5c1.5,0,3,0,4.5,0C80.3,39.7,79.6,37.5,78.8,35.4z"/>
</svg>
