<?xml version="1.0" encoding="utf-8"?>
<!-- Generator: Adobe Illustrator 16.0.0, SVG Export Plug-In . SVG Version: 6.00 Build 0)  -->
<!DOCTYPE svg PUBLIC "-//W3C//DTD SVG 1.1//EN" "http://www.w3.org/Graphics/SVG/1.1/DTD/svg11.dtd">
<svg version="1.1" id="Layer_1" xmlns="http://www.w3.org/2000/svg" xmlns:xlink="http://www.w3.org/1999/xlink" x="0px" y="0px"
	 width="277.7px" height="222.3px" viewBox="0 0 277.7 222.3" enable-background="new 0 0 277.7 222.3" xml:space="preserve">
<g>
	<path d="M142.1,20.7c38.9,0,77.9,0,116.699,0c2.701,0,3,0.4,3,3c0,58.1,0,116.1,0,174.1c0,2.9-0.5,3.6-3.399,3.6
		c-77.601,0-155.2,0-232.8,0c-2.9,0-3.4-0.5-3.4-3.4c0-48.1,0-96.2,0-144.299c0-7,0-13.9,0-21c0-3-0.1-5.9-0.3-8.9
		c0-2.5,0.7-3.1,3.1-3.1c19.9,0,39.9,0,59.8,0C104,20.7,123.2,20.7,142.1,20.7z M231.1,198.1c0-48.5,0-96.9,0-145.1
		c-59.301,0-118.3,0-177.3,0c0,48.5,0,96.701,0,145.1C112.9,198.1,171.9,198.1,231.1,198.1z M25.7,52.8c0,48.5,0,96.901,0,145.1
		c8.7,0,17.4,0,25.8,0c0-48.4,0-96.7,0-145.1C42.8,52.8,34.3,52.8,25.7,52.8z M233,52.8c0,48.5,0,96.901,0,145.1
		c8.6,0,17.1,0,25.5,0c0-48.4,0-96.7,0-145.1C250.1,52.8,241.5,52.8,233,52.8z M258.4,50.8c0-6.4,0-12.6,0-18.9
		c-77.601,0-155.1,0-232.7,0c0,6.3,0,12.6,0,18.9C103.3,50.8,180.799,50.8,258.4,50.8z M25.6,29.9c77.6,0,155.1,0,232.5,0
		c0-2,0-4,0-5.9c-77.5,0-154.9,0-232.5,0C25.6,26,25.6,27.9,25.6,29.9z"/>
	<path d="M142.6,100.4c-26.9,0-53.8,0-80.6,0c-2.7,0-2.7,0-2.7-2.7c0-13.1,0-26.1,0-39.2c0-2,0.3-2.3,2.3-2.3
		c54.1,0,108.1,0,162.199,0c2,0,2.301,0.3,2.301,2.2c0,13.3,0,26.5,0,39.6c0,2.2-0.1,2.3-2.301,2.3
		C196.5,100.4,169.6,100.4,142.6,100.4z M61.1,98.3c54.4,0,108.6,0,162.9,0c0-13.5,0-26.9,0-40.3c-54.4,0-108.601,0-162.9,0
		C61.1,71.5,61.1,84.9,61.1,98.3z"/>
	<path d="M224.4,179.9c-35.399,0-70.8,0-106.6,0c0-2,0-4.199,0-6.3c0-22.399,0-45,0-67.4c0-2,0.3-2.3,2.2-2.3
		c34.2,0,68.2,0,102.299,0c1.9,0,2,0.1,2,2.2c0,19.8,0,39.601,0,59.3C224.4,170.3,224.4,175.1,224.4,179.9z M222.5,178.5
		c0-24.299,0-48.5,0-72.6c-34.301,0-68.5,0-102.601,0c0,24.2,0,48.4,0,72.6C154,178.5,188.2,178.5,222.5,178.5z"/>
	<path d="M58.8,179.9c0-0.699,0-1.199,0-1.9c0-24,0-48.1,0-72.1c0-2.3,0.3-2.5,2.6-2.5c16.3,0,32.4,0,48.6,0c2.5,0,2.6,0.1,2.6,2.6
		c0,23.6,0,47.1,0,70.8c0,1,0,1.9,0,3C94.9,179.9,77,179.9,58.8,179.9z M60.9,105.4c0,24.5,0,48.9,0,73.2c16.7,0,33.2,0,49.9,0
		c0-24.5,0-48.8,0-73.2C94.1,105.4,77.4,105.4,60.9,105.4z"/>
	<path d="M185.9,187.701c0.101-0.5,0.101-1,0.3-1.4c0.1,0,0.301,0,0.4,0c0,1.5,0,2.9,0,4.4c-1,0-2.5,0.799-2.6-1.201
		C183.799,188.201,184.6,187.701,185.9,187.701z"/>
	<path d="M218.1,187.9c-0.801,1-1.4,1.6-1.9,2.301c-0.1-0.101,0,0,0,0c0.5,0.399,1,0.699,1.5,1.1c-0.5,0.3-1.199,0.699-1.8,0.8
		c-1,0-1.2-0.5-0.8-1.399c0.1-0.301,0-0.5,0.1-0.801C215.2,187.5,215.4,187.5,218.1,187.9z"/>
	<path d="M179.4,190.8c-0.101-0.801-0.3-1.6-0.399-2.301c-0.101,0-0.4,0-0.5-0.1c-0.101,0.801-0.4,1.6-0.5,2.5
		c-0.101,0-0.301,0-0.301,0c-0.1-0.8-0.3-1.5-0.3-2.3c-0.101,0-0.399-0.101-0.5-0.101c-0.101,0.801-0.399,1.601-0.5,2.5
		c-0.101,0-0.3,0-0.399,0c0-1-0.101-1.899-0.101-2.899c1.2-0.101,2.3-0.3,3.3-0.101c0.4,0,1,0.5,1.1,1c0.101,0.701,0,1.4,0,2
		C179.9,190.8,179.7,190.8,179.4,190.8z"/>
	<path d="M208.799,190.8c-0.1-0.801-0.299-1.6-0.5-2.5c-0.1,0-0.399,0-0.5,0c-0.1,0.8-0.299,1.6-0.5,2.5c-0.1,0-0.299,0-0.399,0
		c0-1-0.101-1.9-0.101-2.9c1.201-0.1,2.301-0.3,3.4-0.1c0.4,0,0.801,0.699,1,1.1c0.1,0.7,0,1.4,0,2c-0.1,0-0.4,0-0.5,0
		c-0.1-0.8-0.3-1.6-0.4-2.5c-0.1,0-0.399,0-0.5,0c-0.1,0.801-0.399,1.6-0.5,2.5C209,190.8,208.799,190.8,208.799,190.8z"/>
	<path d="M203.5,190.8c0-0.5,0-1.1-0.101-1.5c-0.101-0.301-0.399-0.5-0.5-0.801c-0.3,0.301-0.5,0.5-0.5,0.801
		c-0.101,0.5-0.101,1.1-0.101,1.6c-0.1,0-0.299,0-0.399,0c0-1.5,0-3,0-4.5c0.101,0,0.3,0,0.399-0.1c0.101,0.4,0.301,1,0.301,1.4
		C204.299,187.8,204.9,188.9,203.5,190.8z"/>
	<path d="M195.299,190.9c-0.299-0.5-0.399-1.1-0.699-1.9c-0.4,0.701-0.7,1.201-1,1.9c-0.1,0-0.301,0-0.4,0.1
		c-0.4-1.1-0.699-2-1.1-3.1c0.1,0,0.3-0.1,0.4-0.1c0.299,0.5,0.5,1.1,1,1.8c0.299-0.7,0.5-1.2,1.1-2c0.4,1,0.699,1.5,1,2.2
		c0.3-0.7,0.5-1.2,0.8-1.9c0.101,0,0.3,0.1,0.399,0.1c-0.299,1-0.5,2-1,3C195.7,190.9,195.6,190.9,195.299,190.9z"/>
	<path d="M188.299,190c0.5,0.101,1.201,0.301,1.801,0.4c0,0.1,0,0.301,0,0.4c-0.7,0-1.5,0.1-2-0.1c-0.4-0.301-0.7-1.4-0.4-1.801
		c0.1-0.4,1.1-1,1.6-0.8c0.4,0,0.801,0.8,1.4,1.5c-1.1,0.101-1.8,0.101-2.3,0.3C188.299,189.701,188.299,189.9,188.299,190z"/>
	<path d="M182.299,188.6c-0.399,0-0.799-0.101-1.399-0.101c0-0.1,0-0.299,0-0.399c0.5,0,1.5-0.3,1.601-0.101
		c0.399,0.801,0.699,1.801,1.199,3.101c-1.4-0.3-2.199-0.5-2.9-0.7C181.2,189.9,181.6,189.3,182.299,188.6z"/>
	<path d="M213.9,190.9c-0.8-0.1-1.5-0.4-2.3-0.5c0.5-0.5,1.1-1.1,1.6-1.8c-0.4-0.101-1-0.101-1.4-0.3c0-0.1,0-0.301,0-0.4
		c0.5,0,1.5-0.3,1.601,0c0.399,0.801,0.5,1.801,0.8,2.6C214.299,190.701,214.2,190.8,213.9,190.9z"/>
	<path d="M222.2,188.1c-0.699,0.5-1.1,1-1.5,1.2c0.4,0.4,1,0.8,1.5,1.4c-0.4,0-1.4,0.299-1.6,0c-0.4-0.5-0.5-1.5-0.4-2.201
		C220.6,187.5,221.4,187.5,222.2,188.1z"/>
	<path d="M140.799,47.2c-36.899,0-73.599,0-110.5,0c-2.6,0-2.6,0-2.6-2.6c0-1.4,0-2.6,0-4c-0.1-1.4,0.5-1.8,1.8-1.6
		c0.3,0,0.5,0,0.8,0c73.6,0,147.3,0,220.9,0c2.7,0,2.7,0,2.7,2.9c0,1.2,0,2.5,0,3.8c0,1.1-0.399,1.6-1.5,1.6c-0.399,0-0.8,0-1.399,0
		C214.299,47.2,177.5,47.2,140.799,47.2z M29.6,45.2c74.2,0,148.199,0,222.4,0c0-1.5,0-2.9,0-4.2c-74.201,0-148.201,0-222.4,0
		C29.6,42.4,29.6,43.8,29.6,45.2z"/>
	<path d="M138.1,78c-23.1,0-46.2,0-69.4,0c-3.7,0-5.5-3-3.7-6.3c0.5-1,1.1-1.4,2.2-1.2c10.4,0.3,20.8,0.7,31.2,1
		c10.2,0.3,20.4,0.5,30.6,0.8c16.9,0.4,33.9,0.8,50.799,1.4c9.4,0.3,18.701,0.5,28.101,0.8c1.5,0,2.3,0.7,1.899,2
		c-0.1,0.5-1,1.1-1.5,1.5c-0.299,0.1-0.799,0-1.199,0C184.1,78,161,78,138.1,78z M207.6,76.3c0-0.1,0-0.1,0-0.3
		c-26.2-0.7-52.5-1.5-78.7-2.2c-0.3,0.8-0.5,1.6-0.8,2.5C154.9,76.3,181.2,76.3,207.6,76.3z M67.8,75.6c0-1,0-1.8,0-2.6
		c0-0.3-0.4-0.5-0.7-0.8c-0.3,0.3-0.7,0.5-0.8,1c-0.5,1.9,0.7,3.4,2.7,3.4c3,0,6,0,9-0.1c1.9,0,3.6-1.6,3.7-3.8c-4.4,0-8.7,0-13,0
		C69.5,74.8,69.3,75.2,67.8,75.6z M85.9,76.5c4.5,0,8.7-0.1,13,0c2.2,0.1,3.7-0.5,4.6-2.7c-0.7-0.1-1.2-0.4-1.9-0.5
		c-3.1-0.1-6.3,0-9.4-0.3c-2.6-0.3-4.6-0.1-5.7,2.7C86.4,75.8,86.3,75.9,85.9,76.5z M108,76.5c4.5,0,8.9,0.1,13.1,0
		c1.5,0,2.5-1.1,3.4-2.7c-5.3,0-10.2,0-15.3,0c-0.1,0.3-0.3,0.7-0.5,1.1C108.7,75.2,108.4,75.6,108,76.5z M81.9,76.2
		c1.9,0.1,3.4-1.1,4.2-3.3C83,71.8,83.4,75.1,81.9,76.2z M103.6,76.3c2.5,0.1,3.1-0.4,3.6-2.7C104.7,72.6,105.1,75.4,103.6,76.3z
		 M127.1,74.1c-0.1-0.1-0.3-0.3-0.4-0.4c-0.7,0.8-1.2,1.6-2,2.6C126.6,76.3,126.7,75.1,127.1,74.1z"/>
	<path d="M148,126.3c-3.101-0.301-6.301-0.4-9.3-0.7c-0.5,0-1.1-0.399-1.6-0.5c0.3-0.399,0.5-1.101,1-1.399
		c5.699-4.201,12-7.5,19.1-9c0.5-0.101,1.2,0.1,1.6,0.5c10,10.399,18,22.1,25.101,34.799c0.5,1,1.101,1.201,2,1.201
		c6,0.299,12,0.799,17.899,2.6c0.701,0.1,1.5,0.4,1.9,0.8c0.7,0.5,1.5,1.399,1.5,2s-0.8,1.601-1.5,2c-1.5,0.7-3.1,1.2-4.6,1.399
		c-6.4,0.5-13,0.5-19.4-0.1c-6.8-0.8-13.699-1.1-20.5-1.199c-10.199-0.301-20.4-0.101-30.6-0.301c-2.2,0-4.5,0.1-6.7,0
		c-0.5,0-1.1-0.5-1.8-0.8c0.4-0.399,0.8-1,1.4-1.101c6.3-1.899,12.7-3.699,19-5.5c3.799-1.1,3.799-1,4.1-4.899
		c0.4-5.899,1-11.8,1.4-17.601C148.2,127.701,148,127,148,126.3z M147.299,151.201c-1.1,0-1.899,0-2.699,0.1
		c-5.2,1.5-10.2,3-15.3,4.5c-0.4,0.1-0.8,0.3-1.2,0.5c5.2-0.301,10.2-0.4,15.3-0.1c14.601,0.5,29.399,1.399,44,1.899
		c4.601,0.101,9.399,0.101,14.101,0.101c1.799,0,3.299-0.4,4.899-1.9c-7-3-14.2-3-21.2-4.2c0.1,0.7,0.1,1.2,0.301,2.2
		c-1.4-2.2-2.5-4-3.701-5.9c-0.5-0.8-1.199-1.6-1.799-2.5c-6.701-10.1-13.4-19.9-21.301-29.1c-0.5-0.7-1.1-1-1.9-0.7
		c-4.199,1.8-8.6,3.399-12.799,5.2c-1.5,0.699-2.9,1.5-4.201,2.199c2.701,0.5,5.5,0.701,8.201,0.701c1.5,0,2.199,0.5,2.199,2
		c0.4,7.899-1,15.699-2,23.6C147.799,150.5,147.299,151.1,147.299,151.201z"/>
</g>
<path d="M254.198,25.082c-0.961,0-1.763,0.802-1.763,1.763s0.802,1.763,1.763,1.763s1.763-0.802,1.763-1.763
	S255.159,25.082,254.198,25.082z"/>
<path d="M247.85,25.017c-1.01,0-1.852,0.842-1.852,1.852s0.842,1.852,1.852,1.852s1.852-0.842,1.852-1.852
	S248.86,25.017,247.85,25.017z"/>
<path d="M240.85,25.291c-2.076,0-2.076,3.219,0,3.219S242.926,25.291,240.85,25.291z"/>
<path d="M198.309,189.681c-0.082-0.407-0.179-0.814-0.282-1.217c-0.063-0.244-0.458-0.197-0.445,0.061
	c0.021,0.421-0.026,0.837-0.017,1.257c0.007,0.301,0.019,0.811,0.332,0.958c0.155,0.073,0.402,0.062,0.482-0.126
	C198.504,190.318,198.37,189.987,198.309,189.681z"/>
<path d="M200.533,189.009c-0.052-0.603-0.199-1.197-0.388-1.77c-0.055-0.167-0.279-0.096-0.256,0.07
	c0.156,1.113-0.323,2.571,0.213,3.585c0.101,0.19,0.377,0.131,0.436-0.057C200.716,190.266,200.584,189.598,200.533,189.009z"/>
<path d="M201.042,188.297c-0.428-0.305-1.145-0.139-1.649-0.193c-0.284-0.03-0.349,0.45-0.067,0.499
	c0.487,0.085,1.196,0.255,1.666,0.087C201.172,188.625,201.197,188.408,201.042,188.297z"/>
<path d="M219.361,189.275c-0.013-0.163-0.036-0.319-0.063-0.48c-0.045-0.264-0.181-0.456-0.243-0.708
	c-0.02-0.079-0.138-0.078-0.158,0c-0.115,0.435-0.323,0.802-0.393,1.264c-0.06,0.398-0.111,0.818,0.016,1.206
	c0.126,0.387,0.724,0.433,0.828,0C219.449,190.139,219.392,189.7,219.361,189.275z"/>
</svg>
