<?xml version="1.0" encoding="utf-8"?>
<!-- Generator: Adobe Illustrator 16.0.0, SVG Export Plug-In . SVG Version: 6.00 Build 0)  -->
<!DOCTYPE svg PUBLIC "-//W3C//DTD SVG 1.1//EN" "http://www.w3.org/Graphics/SVG/1.1/DTD/svg11.dtd">
<svg version="1.1" id="Layer_1" xmlns="http://www.w3.org/2000/svg" xmlns:xlink="http://www.w3.org/1999/xlink" x="0px" y="0px"
	 width="277.7px" height="222.3px" viewBox="0 0 277.7 222.3" enable-background="new 0 0 277.7 222.3" xml:space="preserve">
<g>
	<path d="M139.2,20.8c38.7,0,77.3,0,116.099,0c0.601,0,1,0,1.601,0c2,0,2.399,0.6,2.399,2.4c0,9.5,0,18.9,0,28.6
		c0,49.1,0,98.1,0,147.2c0,2.701-0.6,3.301-3.1,3.301c-77.801,0-155.701,0-233.401,0c-2.8,0-3.1-0.301-3.1-3.301
		c0-48.398,0-96.798,0-145.2c0-7.1,0-14.1,0-21.2c0-3-0.1-5.8-0.3-8.8c0-2.4,0.4-3,3-3c13.1,0,26.3,0,39.3,0
		C87.4,20.8,113.3,20.8,139.2,20.8z M22.2,52.6c0,49.1,0,98,0,146.8c78,0,156.099,0,234,0c0-49.1,0-97.8,0-146.8
		C178.2,52.6,100.3,52.6,22.2,52.6z M255.9,31.6c-78,0-155.9,0-233.7,0c0,6.6,0,13,0,19.5c78,0,155.8,0,233.7,0
		C255.9,44.5,255.9,38.1,255.9,31.6z M22.2,30.1c78,0,155.8,0,233.7,0c0-2.3,0-4.4,0-6.5c-77.899,0-155.8,0-233.7,0
		C22.2,25.7,22.2,27.8,22.2,30.1z"/>
	<path d="M236.4,189.701c-0.101-1.101-0.3-1.701-0.399-2.5c-1.301,0.1-2.399,0.299-3.701,0.399c-6.898,0.3-14,0.7-20.898,1
		c-14,0.601-28.102,1.399-42.102,1.601c-16,0.299-32,0-47.898,0c-5.4,0-10.6-0.301-16-0.4c-1.7,0-3-0.301-3-2.399
		c0-1.601-0.3-3.101-0.1-4.698c0.3-7.102-0.7-14-1.6-20.9c-0.6-5.1-0.8-10.2-1.1-15.1c-0.1-2.302,0.3-2.5,2.5-2.5
		c9.9,0,19.7,0.1,29.5,0c30.101-0.302,60.198-0.802,90.3-1.102c4.898,0,9.898,0.398,14.801,0.699c1.1,0,1.6,0.4,1.301,1.699
		c-0.301,1.102-0.102,2.4,0,3.701c0.799,11.899,0.6,23.799-0.102,35.6c-0.102,1.301-0.398,2.5-0.699,3.801
		C237.1,188.6,236.9,189,236.4,189.701z M237,145.201c-0.701,0-1.301-0.101-1.801-0.101c-4.5,0-9,0.101-13.601,0.3
		c-26.2,0.301-52.5,0.6-78.601,0.7c-11.5,0.101-22.899,0-34.399-0.101c-2.4,0-4.8-0.399-7.2-0.601c0,1-0.1,1.802,0,2.7
		c0.6,4.398,1,8.898,1.8,13.3c1.4,8.5,2.5,17.101,1.3,25.7c6.8,0.3,13.7,0.602,20.5,0.699c30.1,0.601,60.1-0.399,90.201-1.801
		c5.5-0.299,11,0,16.5,0.102c1.399,0,2.699,0,3.801,0C236,172.201,236.4,158.701,237,145.201z"/>
	<path d="M87.062,103.685c-0.279-0.59-0.576-1.162-0.862-1.708c-0.034-0.024-0.065-0.053-0.1-0.077c-2.1-1.5-4.4-1.5-6.5,0.1
		c-1,0.7-2,1.6-2.8,2.3c-1,0.7-1.9,1.7-3,2.4c-4,2.4-7.9,3.1-11.9-0.3c-1.4-1.3-3.1-2.3-4.8-3.1c-1.8-0.8-3.7-1.6-5.8-2.4
		c0.9-1.3,1.7-2.8,2.7-4.4c0,0-0.3-0.1-0.4,0c-2.018,1.494-2.974,3.77-3.996,5.993c-0.002,0.039,0.008,0.073,0,0.114
		c-0.286,1.391-0.617,2.784-0.821,4.185c0.381,3.426,0.474,6.885,2.218,10.207c2.4,4.4,5.9,7.5,10.3,9.801
		c-1.3-1.1-2.6-2.301-3.7-3.4c-5.1-5.199-7.9-11.4-7.1-18.9c0.3-2.7,0.9-3.1,3.3-2.1c2.3,1,4.3,2.5,6.4,3.8c0.7,0.6,1.6,1.2,2.3,1.6
		c4.9,3,9,2.6,13.4-1.1c1.4-1.3,2.6-2.6,4.2-3.7c2-1.5,3.8-1.5,5.8,0.1c0.453,0.357,0.875,0.71,1.264,1.076
		C87.133,104.012,87.097,103.849,87.062,103.685z"/>
	<path d="M91.8,105.5c-1.9-8.5-7.7-13.7-15.6-16.7c-1-0.4-1.4-0.9-1.4-2c0.3-4.8-0.6-9.7,1-14.4c-1-0.2-1.7-0.5-2.4-0.8
		c0.5-1.6,1.1-2.9,1.8-4.7c-4.2-0.1-8.5-0.4-12.7-0.4c-1.4,0-1.4,1.3-1.1,2.3c0.3,0.8,0.7,1.5,1.1,2.5c-1.4-0.1-2.6-0.1-2.7,1.6
		c0,1.3,1.1,2.4,2.7,2.7v12.2c-0.5,0.1-1,0.3-1.7,0.4c-5.5,1.6-10,4.7-13.4,9.2c-7.9,10.6-4.3,25.6,7.9,31.801
		c10,5.299,19.8,4.6,28.7-2.5C90.8,121.3,93.6,114.1,91.8,105.5z M74.1,68.1c-1.5,0.8-1.2,3.2-3.3,3.1c-2.6-0.1-6,1.3-7.1-3.1H74.1z
		 M83.1,124.1c-8.7,7.7-20.8,7.5-29.8,0.3c-9.4-7.6-9.4-21.9,0.1-29.5c2.9-2.4,6.1-4.1,9.8-4.8c0.4,0,1-0.7,1-1.1
		c0.2-2.2,0.3-4.3,0.3-6.4c-0.1-2.4-0.3-5-0.4-7.1c-0.9-0.9-1.3-1.4-1.7-2.099c0.2-0.2,0.2-0.5,0.3-0.6h12.4
		c-0.8,0.6-1.4,1.2-1.8,1.6v13.9c0,1.3,0.6,2,2,2.4c6.5,2,11.2,6.2,13.7,12.6c0.1,0.3,0.1,0.6,0.1,1
		c-0.042-0.028-0.078-0.058-0.117-0.086c0.741,1.84,1.196,3.781,0.739,5.647C90.268,116.01,87.358,120.504,83.1,124.1z"/>
	<path d="M212.6,67.2c-8,0-15.9-0.2-23.801,0.1C179.9,67.5,171,68.4,162.1,69.1c-6.301,0.5-12.801,0.9-19.2,1.3
		c-1.601,0.2-3.3-0.3-5.1-0.4c0.3-0.4,0.3-0.7,0.4-0.8c1.4-2.4,1-3.9-1.7-4.7c-1.8-0.6-3.7-0.9-5.5-1c-6.6-0.4-13.1,0.6-19.5,2.3
		c-2.6,0.6-5,1.7-7.4,2.7c-0.567,0.283-1.039,0.922-1.342,1.499c0.133,0.162,0.268,0.321,0.395,0.49c0,0,0,0,0,0
		c2.776-0.501,5.163-1.292,7.647-1.789c6.5-1.7,13.3-2.8,20.1-2.5c1.8,0.1,3.5,0.5,5.5,0.8c-0.4,0.7-0.6,1-0.7,1.3
		c-1.1,1.9-0.6,3.5,1.7,4.2c1.1,0.3,2.399,0.6,3.5,0.6c5.5-0.1,11-0.1,16.5-0.7c12.2-1.4,24.2-2.8,36.5-2.5c6.3,0.1,12.5,0.1,18.7,0
		c0.9-0.1,2.5-1,2.5-1.4C215,67.1,213.7,67.2,212.6,67.2z"/>
	<path d="M178,105.6c-7.4,0.3-20.5,0.7-33.801,1.3c-8.301,0.4-16.5,1.1-24.901,1.7c-2.3,0.1-4.5,0.1-6.8,0c-0.6,0-1.1-0.8-1.8-1.4
		c0.6-0.4,1.3-1,1.8-1c13.9-0.8,27.701-2,41.6-2.5c14.101-0.4,28.3-0.3,42.399-0.4c7.899-0.1,15.699-0.1,23.601-0.3
		c0.601,0,1.101,0,1.399,0.3c0.399,0.3,0.799,0.8,0.799,1.3s-0.6,0.8-1,1.1c-0.299,0.1-0.698,0.1-1.1,0.1
		C208.299,105.6,196.1,105.6,178,105.6z"/>
	<path d="M170.6,94.7c-10.6,0.4-21.301,1-32,1.4c-8.3,0.4-16.8,1-25.2,1.4c-0.7,0-1.6,0.1-2.1-0.1c-0.6-0.1-1-0.8-1.4-1.3
		c0.6-0.4,1.1-1.1,1.7-1.1c2-0.1,4.1-0.1,6.1-0.3c16.8-0.8,33.8-2.1,50.599-2.3c15.601-0.1,31.201,1.1,46.801,1.8
		c0.8,0,1.8,0.1,2.699,0.4c0.601,0.3,0.801,1,1.4,1.4c-0.601,0.4-1.101,1.1-1.699,1c-9.9-0.4-19.801-1.1-29.801-1.6
		C182,95.1,176.5,95,170.9,94.8C170.6,95,170.6,94.8,170.6,94.7z"/>
	<path d="M205.799,115.1c-1.299,0.3-2.399,0.7-3.5,0.7c-13.899,0.3-27.699,0.6-41.6,1c-9.9,0.3-19.9,0.8-29.801,1.3
		c-4.8,0.101-9.5,0.399-14.3,0.601c-0.8,0-1.6,0-2.4-0.301c-0.6-0.1-1-0.8-1.4-1.1c0.6-0.4,1-1.1,1.7-1.1c3-0.302,5.8-0.4,8.8-0.602
		c26.401-0.801,52.901-1.602,79.3-2.398C203.799,113.1,204.9,113.201,205.799,115.1z"/>
	<path d="M111.9,129.1c1.4-0.399,2.8-1,4.2-1.101c7.8-0.299,15.7-0.601,23.5-0.699c0.6,0,1.3,0.699,1.8,1c-0.601,0.4-1,1.3-1.7,1.4
		c-2.5,0.299-5.2,0.398-7.8,0.398c-5.8,0.102-11.5,0.102-17.2,0.102c-1,0-2-0.302-2.8-0.4C112,129.5,111.9,129.3,111.9,129.1z"/>
	<path d="M137.9,46.9c-36.9,0-73.7,0-110.6,0c-2.5,0-2.5,0-2.5-2.5c0-1.7-0.4-3.8,0.4-4.8c0.7-0.8,3.1-0.4,4.7-0.4
		c72.7,0,145.5,0,218.2,0c0.6,0,1,0,1.6,0c1,0,1.4,0.4,1.4,1.4c0,1.7,0,3.3,0,4.9c0,1-0.4,1.3-1.301,1.3c-0.6,0-1,0-1.6,0
		C211.4,46.9,174.7,46.9,137.9,46.9z M249.6,40.7c-74.5,0-149,0-223.4,0c0,1.7,0,3.3,0,4.9c74.5,0,148.9,0,223.4,0
		C249.6,43.9,249.6,42.4,249.6,40.7z"/>
	<path d="M110,150.5c-0.8,0-1.6-0.1-2.5-0.1c0.7-0.699,1.1-1.1,1.7-1.4c4.7-2.299,9.6-2.699,14.3-0.398c3.8,1.8,4.8,5.5,2.5,9
		c-0.8,1.3-1.8,2.398-2.8,3.5c1.3,0.699,2.7,1.398,4,2.398c3.1,2.4,3.8,6.102,1.8,9.5c-3,5.102-9.2,7.801-15.1,6.5
		c-3.3,1.102-2.8-1.398-3.1-3.1c-0.1-0.6,0.1-1.1,0.1-1.699c-0.1-4.9-0.3-9.9-0.6-14.801C110.3,156.9,110.2,153.8,110,150.5z
		 M111.2,150.1c0.6,2.7,1.3,5.101,1.6,7.5c0.4,5.8,0.7,11.5,1,17.2c0.1,2.1,0.4,2.5,2.5,2.5c4,0.3,7.1-1.7,9.6-4.4
		c2.4-2.5,2.1-6.1-0.7-8.3c-1.8-1.601-3.8-2.399-6.4-2.3c-1.3,0-2.7-0.301-4.1-0.4c0-0.1,0-0.4,0-0.6c0.6-0.1,1-0.1,1.6-0.4
		c2-0.699,4.2-1.3,6.1-2.4c3.4-2.1,3-6.398-0.6-8.1C118.4,149,114.8,149.4,111.2,150.1z"/>
	<path d="M190.1,153.4c2,1.6,3.1,3.7,3.4,6.2c0.6,4.101,0.1,8.101-1.602,11.899c-0.8,2-2.3,3.701-4.699,4
		c-2.101,0.101-3.301-1-4-2.799c-2.101-5.201-4.199-10.302-6.5-15.4c-0.101-0.4-0.601-0.801-0.699-1c0,2.5-0.102,5.4,0,8.1
		c0.1,3,0.398,5.9,0.6,8.9c0,1,0,2.1-1.301,2.1c-1.299,0-1.299-1.1-1.399-2.1c-0.101-5.2-0.601-10.301-0.7-15.6
		c0-1.302,0-2.5,0.4-3.701c0.6-1.699,1.8-2,3.1-0.799c0.801,0.698,1.6,1.6,2,2.398c1.801,3.8,3.4,7.602,5.2,11.602
		c0.7,1.6,1.399,3.1,2.101,4.5c0.699,1.398,1.699,1.6,2.5,0.1c1-1.801,1.699-4,2.101-5.9c0.601-2.8,0.399-5.699-0.601-8.5
		c-0.399-1.1-0.399-2.4-0.601-3.699C189.6,153.5,189.9,153.5,190.1,153.4z"/>
	<path d="M212.799,154.9c0.101,0.7,0.301,1.4,0.301,2.1c0.1,3.301,0.1,6.5,0.4,9.801c0.1,2.4,0.799,4.699,2.699,6.4
		c1.399,1.299,2.801,1.299,3.5-0.601c0.801-2.5,1.301-5.101,1.699-7.601c0.301-1.699,0.301-3.399,0.301-5.199
		c1.801,1.1,2,3,2.399,4.5c0.698,2.5,1.399,5.1,2.399,7.5c1.101,2.4,2.299,2.5,3.5,0.1c0.799-1.699,1.601-3.8,1.699-5.8
		c0.1-2.8-0.1-5.7-0.3-8.5c0-1,0-2.101,0-3.101c0.101-0.101,0.3-0.101,0.601-0.299c0.601,0.698,1.399,1.398,1.699,2.398
		c1.6,5.5,1.4,10.898-1,16.3c0,0.101-0.1,0.302-0.3,0.399c-2.7,4.199-5.8,4.199-8.3-0.1c-0.301-0.4-0.6-1-0.801-1.601
		c-0.601,1.101-1,2.101-1.601,3.101c-1.8,2.699-4.5,3-6.899,0.799c-1.799-1.6-3-3.5-3.399-5.898c-0.8-4.2-0.8-8.602,0.3-12.898
		c0.1-0.602,0.4-1.102,0.7-1.802C212.4,154.8,212.7,154.9,212.799,154.9z"/>
	<path d="M210.4,165.8c-0.3,1.699-0.399,3.5-1,5.199c-1.3,3.5-4.899,5.399-8.8,4.701c-3.5-0.701-5.7-3.4-5.801-7.201
		c-0.1-5.399,1.601-10,5.201-14c2.299-2.399,4.898-2.399,6.799,0.301C209.299,158,210.299,161.701,210.4,165.8z M207.6,165.701
		c0.1,0,0.3-0.101,0.4-0.101c-0.701-2.5-1.301-5.101-2.102-7.5c-0.398-1-1.699-2.7-2.3-2.5c-1.302,0.3-2.302,1.601-3.399,2.399
		c-0.301,0.101-0.301,0.601-0.4,0.801c-1.6,3-2,6.199-2,9.5c0,3,1.301,4.5,4.101,4.9c2.5,0.299,4.8-1.102,5.5-3.701
		C207.5,168.201,207.5,166.9,207.6,165.701z"/>
	<path d="M141.4,155.9c2.101,0.7,2.8,2.1,3.101,3.7c0.799,4.399,0.699,8.601-0.801,12.899c-1.8,4.701-7.4,5.701-10,1.399
		c-3.8-5.8-4.8-12.198-2.5-18.899c0-0.101,0.1-0.299,0.3-0.399c0-0.101,0.1-0.101,0.6-0.3c0.3,2,0.4,4,0.7,5.8
		c0.4,2.8,0.8,5.7,1.4,8.5c0.1,0.601,0.4,1.101,0.6,1.7c1,2.4,2.4,3.5,4.2,3.4c2.299-0.302,2.5-2.102,3-3.802
		c0.799-3.5,1-7.101,0-10.601C141.4,158.3,141.6,157.3,141.4,155.9z"/>
	<path d="M153,174.6c-0.102-3.8-0.301-7.8-0.602-11.601c0-0.601-0.602-1.101-1-1.601c-1.8-1.399-3.398-3.101-4.102-5.198
		c-0.1-0.602,0.102-1.4,0.302-2c0.601,0.299,1.3,0.6,1.698,1c1,1,1.701,2.299,2.701,3.299c1.601,1.601,2.699,1.701,4.101-0.101
		c0.8-1.101,1.3-2.698,1.8-4c0.301-0.601,0.7-1,1.102-1.399c0.398,0.399,1.1,0.801,1.299,1.301c0.701,2-1.1,5.8-3.5,6.9
		c-1.799,0.799-1.699,2-1.6,3.5c0.301,2.799,0.301,5.698,0.399,8.5c0,0.6-0.101,1.299-0.101,1.799c-0.101,1-0.399,1.801-1.601,1.601
		c-0.601-0.101-1-1-1.601-1.601C152.6,174.701,152.9,174.6,153,174.6z"/>
</g>
<path d="M250.838,24.882c-0.998,0-1.83,0.833-1.83,1.831s0.832,1.831,1.83,1.831s1.83-0.833,1.83-1.831
	S251.836,24.882,250.838,24.882z"/>
<path d="M243.6,24.955c-0.958,0-1.758,0.8-1.758,1.758s0.8,1.758,1.758,1.758s1.758-0.8,1.758-1.758S244.558,24.955,243.6,24.955z"
	/>
<path d="M235.975,25.048c-0.941,0-1.727,0.785-1.727,1.727s0.785,1.727,1.727,1.727s1.727-0.785,1.727-1.727
	S236.917,25.048,235.975,25.048z"/>
</svg>
