<?xml version="1.0" encoding="utf-8"?>
<!-- Generator: Adobe Illustrator 16.0.0, SVG Export Plug-In . SVG Version: 6.00 Build 0)  -->
<!DOCTYPE svg PUBLIC "-//W3C//DTD SVG 1.1//EN" "http://www.w3.org/Graphics/SVG/1.1/DTD/svg11.dtd">
<svg version="1.1" id="Layer_1" xmlns="http://www.w3.org/2000/svg" xmlns:xlink="http://www.w3.org/1999/xlink" x="0px" y="0px"
	 width="244.3px" height="222.3px" viewBox="0 0 244.3 222.3" enable-background="new 0 0 244.3 222.3" xml:space="preserve">
<g>
	<path d="M204.8,50.8c-33.1-8.9-66.2-18-99.3-27c-2.3-0.6-3.5,0.2-3.5,2.8V41c-0.6-0.1-1-0.2-1.4-0.3c-12.1-3.5-24.2-6.9-36.3-10.4
		c-12-3.5-24.1-6.9-36.1-10.4c-1.6-0.5-2.3,0.1-2.2,1.8v0.9c0,27.9,0,55.7-0.2,83.5c0,2.1,0.5,3.4,2.5,4c0.3,0.1,0.5,0.3,0.8,0.4
		c31,13.201,62.1,26.5,93.1,39.701c2.9,1.199,4.1,0.399,4.1-2.701v-26.1c1.4,0.4,2.4,0.9,3.6,1.1
		c24.6,8.101,49.301,16.101,73.9,24.201c3,1,3.4,0.699,3.4-2.4V53.9C207.201,52.1,206.5,51.3,204.8,50.8z M104.8,26.6
		c33.3,9,66.5,18.1,99.6,27.1v6.9c-33.3-9.4-66.4-18.7-99.6-28V26.6z M28.9,23.1c2.9,0.8,5.8,1.6,8.6,2.4c28.1,8,56.3,16,84.4,24
		c1.2,0.4,1.7,0.9,1.6,2.2c-0.1,1.5,0,2.9,0,4.6c-31.6-9.7-63.1-19.2-94.6-28.8V23.1z M28.9,33.1c0.1-1.2,0-2.5,0-3.9
		c2.7,0.8,5.3,1.5,7.8,2.4c28.6,8.7,57.2,17.4,85.8,26.1c0.5,0.1,1,0.7,1,1.1c0.101,1.6,0,3.1,0,4.9c-5.299-1.6-10.399-3.1-15.6-4.7
		c-25.6-7.7-51.3-15.5-77-23.2C29.4,35.3,28.7,34.7,28.9,33.1z M123.6,147.5c0,0,0,0.101-0.101,0.301c-3.5-1.5-7.1-3-10.6-4.5
		c-26.8-11.5-53.6-22.9-80.4-34.4c-3.8-1.6-3.8-1.6-3.8-5.8c-0.1-11.4-0.2-22.9-0.3-34.4v-2.1c3.2,1.1,6.2,2.1,9.1,3.2
		c21.2,7.3,42.4,14.6,63.6,22c7.1,2.4,14.3,4.9,21.4,7.5c0.5,0.2,1.1,0.9,1.1,1.4V147.5z M123.8,98c-2.6-0.9-5-1.7-7.3-2.4
		C89,86,61.4,76.4,33.8,66.8c-0.2-0.1-0.3-0.1-0.5-0.2c-4.7-1.5-4.6-1.5-4.5-6.5c0.1-7.1,0-14.1,0-21.2v-2c0.9,0.2,1.6,0.4,2.4,0.6
		c29.7,9,59.4,17.9,89.1,26.9c3.5,1.1,3.5,1.1,3.5,4.7V98z M104.8,39.9v-5.6c2.7,0.7,5.2,1.4,7.8,2.1
		c30.2,8.5,60.399,16.9,90.601,25.4c0.899,0.3,1.199,0.6,1.199,1.6c-0.1,1.6,0,3.3,0,5C171,58.9,137.9,49.4,104.8,39.9z
		 M204.4,74.408V144.1c-0.8-0.2-1.4-0.3-2-0.5c-23.9-7.899-47.8-15.7-71.699-23.5c-4.5-1.5-4.5-1.5-4.4-6.3c0-0.9,0.199-1.9,0.4-3
		c-0.101-0.4-0.4-1.2-0.4-1.9c0.1-2.9,0.5-5.7,0.5-8.6c0-2.4-0.4-4.7-0.5-7c-0.1-0.9,0.1-1.9,0.1-2.8c0-0.7-0.1-1.5-0.1-2.2v-9
		c0-0.107,0.07-0.196,0.152-0.273v-1.252c0-0.131,0.021-0.248,0.055-0.354c-0.114-0.528-0.207-1.026-0.207-1.521
		c0.1-2.8,0.4-5.5,0.4-8.2c0-2.4-0.301-4.7-0.4-7.1v-0.9c0-3.4,0.1-6.9,0-10.3c0-0.7-0.801-1.3-1.1-1.9c6,1.7,12.299,3.5,18.6,5.5
		c19.4,5.5,38.8,11.1,58.3,16.5c1.8,0.5,2.3,1.1,2.3,3v0.392C204.776,73.299,204.776,74,204.4,74.408z"/>
	<path d="M175.5,151.8c1.201,0.699,2.301,1.199,3.101,1.9c11.399,11.799,22.7,23.699,34,35.6c1.8,1.9,3.601,3.699,5.3,5.699
		c1.6,1.9,1.4,3.4-0.8,5.301c-1.7,1.5-3.399,1.4-4.899-0.301C204,190.701,195.9,181.3,187.8,171.9c-4.5-5.199-9-10.4-13.6-15.5
		c-1-1.1-0.701-2.1-0.201-3.1C174.201,152.8,174.8,152.5,175.5,151.8z M194.9,173.3c-6-6.301-11.9-12.5-17.9-18.7
		c-0.399-0.399-1.199-0.3-1.799-0.5c0.199,0.5,0.199,1.2,0.5,1.601c3.6,4.199,7.199,8.399,10.799,12.5c2.201,2.5,4.4,5,6.601,7.5
		C193.8,174.8,194.4,174.1,194.9,173.3z M209,188.1c-1.299-1.399-2.5-2.8-3.899-4.2c-0.3-0.3-1.101-0.6-1.5-0.4
		c-0.5,0.201-1,0.801-1,1.201c-0.101,0.699,0,1.6,0.399,2.199c1.101,1.5,2.4,2.801,3.601,4.1C207.4,190.1,208.1,189.201,209,188.1z
		 M212.701,198.201c1.299-0.9,2.399-1.701,3.6-2.5c-0.801-0.9-1.6-1.801-2.5-2.601c-0.4-0.3-1.1-0.5-1.5-0.399
		c-1.801,0.6-2.2,2.5-0.9,3.899C211.8,197.201,212.3,197.701,212.701,198.201z M200.8,179.5c-0.7-0.699-1.301-1.6-2.2-2.199
		c-0.5-0.4-1.399-0.301-2.101-0.4c-0.1,0.801-0.5,1.7-0.199,2.301c0.4,0.899,1.3,1.6,2,2.399C199.201,180.9,199.9,180.3,200.8,179.5
		z M210.201,189.4c-2.801,1.301-3,2.9-1.5,4.2c1-1,1.799-1.8,2.699-2.7c0.2,0.2,0.4,0.4,0.6,0.5
		C211.4,190.701,210.8,190,210.201,189.4z M202.6,181.6c0.2,0.101,0.5,0.2,0.7,0.399c-0.7-0.399-1.4-1.1-1.9-1
		c-0.6,0.101-1.5,0.9-1.6,1.601c-0.1,0.601,0.5,1.399,0.9,2.101c-0.201-0.301-0.301-0.601-0.5-1C201,183,201.8,182.3,202.6,181.6z
		 M216.701,196.9c-1,0.7-2,1.301-3.201,2.1C215.9,199.8,216.6,199.3,216.701,196.9z"/>
	<path d="M154.701,147.8c-0.5-0.801-1-1.6-1.5-2.4c-3.701,5-9.101,6.4-14.5,7.801c-3.601,0.899-7.201,0.6-10.9-0.4
		c4.3-0.7,8.5-1.1,12.5-2c4.1-1,8.1-2.4,10.699-6.301c-2.199,0.601-4.299,1.201-6.5,1.801c3.4-2.7,6.601-5.5,8.4-9.6
		C155.4,139.6,156.4,145.9,154.701,147.8z"/>
	<path d="M166.3,160.3c-2.4-2.301-2.1-5-1.7-7.6c0.3-2.201,1.5-4,3.5-5.4c-0.8,2.3-1.899,4.199-2.2,6.3
		C165.6,155.6,166.1,157.8,166.3,160.3z"/>
	<path d="M181.201,148.701c-3.301-2.801-7-2.5-10.701-2.201c1-1.899,3.701-2.299,7.4-1.299C180.1,145.8,181.3,147,181.201,148.701z"
		/>
	<path d="M163.9,149.701c-0.199,1.1-1.1,1.799-2.4,1.799c-1.399,0-2.899-1.399-2.5-2.5c0.4-1.1,1.4-2.199,2.4-2.799
		C162.3,145.701,164,148.1,163.9,149.701z M161.5,146.8c-0.199,0-0.5,0.1-0.699,0.1c-0.301,0.6-0.9,1.301-0.7,1.7
		c0.3,0.7,1,1.2,1.601,1.7c0.1,0.1,1.199-0.801,1.1-1C162.6,148.3,162,147.6,161.5,146.8z"/>
	<path d="M186.8,149.5c-1.4,0-2.6-1.1-2.301-2.399c0.201-0.899,1.101-1.899,1.9-2.399c0.7-0.4,2.5,1.899,2.5,3
		C188.9,148.8,188.1,149.5,186.8,149.5z M186.5,145.6c-0.399,0.8-0.799,1.2-0.699,1.5c0.199,0.5,0.699,0.899,1.1,1.3
		c0.301-0.3,0.801-0.699,0.7-0.9C187.5,146.9,187.1,146.5,186.5,145.6z"/>
	<path d="M195.3,163.701c-1.9-0.201-2.801-1-2.6-2.201c0.1-0.699,1.1-1.699,1.799-1.799c1.4-0.301,2,1.1,1.9,2.199
		C196.4,162.6,195.6,163.3,195.3,163.701z"/>
	<path d="M168.1,161c1.7,0.701,3.2,1.601,4.7,2c1.5,0.4,3.1,0.201,4.6,0.301C175.4,165.8,169.5,164.5,168.1,161z"/>
	<path d="M163.3,160.5c-0.301,1.5-0.801,2.201-2,2.201c-1.301,0-2.1-0.701-2.2-2c-0.101-1.301,1-2,2-1.801
		C162,158.9,162.6,159.9,163.3,160.5z"/>
	<path d="M182.201,154.4c-2.601-4.6-5.101-5.9-9.5-5c0.899-1.5,1.899-1.8,4.5-1C180.701,149.4,182.201,151,182.201,154.4z"/>
	<path d="M191.4,155.6c-1.199,0.8-1.8,1.601-2.6,1.8c-1,0.301-2.301-1.199-2.301-2.4c0-1.1,1.301-2.6,2.201-2.199
		C189.6,153.4,190.3,154.5,191.4,155.6z M189,154c-0.299,0-0.6,0.101-0.899,0.101c0.101,0.601,0,1.3,0.2,1.899
		c0,0.101,0.8,0.101,1.199,0.101C189.3,155.3,189.1,154.6,189,154z"/>
	<path d="M179,142.8c0,1.1-0.899,1.699-2.199,1.699c-1.4,0-2.301-0.6-2.4-2c-0.199-1.1,1-2.199,2.2-2.299
		C177.9,140.201,179,141.201,179,142.8z M176.8,140.9c-0.6,0.7-0.9,1.2-1.301,1.6c0.5,0.301,0.9,0.801,1.4,0.9
		c0.301,0,0.9-0.6,0.9-1C177.9,142,177.3,141.6,176.8,140.9z"/>
	<path d="M183.6,158c-0.2-2.5-0.399-4.899-0.601-7.699c1.601,1.1,1.9,2.6,2,4.199C185,155.8,185.201,157.3,183.6,158z"/>
	<path d="M169.1,158.3c-2.399-1.7-1.899-5.801,0.8-8C168.4,152.8,168.1,155.4,169.1,158.3z"/>
	<path d="M194.201,168.201c-0.701-1-1.301-1.5-1.301-2s0.801-0.9,1.2-1.4c0.399,0.5,1,1,1.101,1.5
		C195.201,166.701,194.701,167.201,194.201,168.201z"/>
	<path d="M200.6,164.5c0.2,1,0.399,1.801,0.601,2.701c-0.601-0.101-1.5,0.1-1.801-0.201C198.6,166.1,198.9,165.3,200.6,164.5z"/>
	<path d="M175.1,160.8c-2.3,0.6-3.899-0.2-5.101-2.301C171.8,159.3,173.3,160,175.1,160.8z"/>
	<path d="M205,159.9c0.4,0.7,1,1.2,0.9,1.6c-0.1,0.4-0.699,1-1.1,1s-1.2-0.699-1.1-1C203.9,161,204.4,160.6,205,159.9z"/>
	<path d="M80.4,88.4c5.3,1.9,10.2,3.5,15.1,5.3c6.4,2.2,12.7,4.5,19.1,6.7c1.2,0.4,1.6,1,1.6,2.3c-0.1,11.4-0.1,22.799-0.2,34.2
		c0,0.1-0.1,0.2-0.2,0.5c-0.5-0.1-1.2,0-1.7-0.3c-10.9-4.3-21.7-8.7-32.5-13.101c-0.5-0.199-1.1-1-1.1-1.5
		c-0.1-10.299,0-20.6,0-30.899C80.4,90.7,80.4,89.8,80.4,88.4z M82.2,90.7c-0.1,0.5-0.1,0.9-0.1,1.2c0,9.9,0,19.801-0.1,29.7
		c0,1.101,0.7,1.3,1.4,1.7c9.9,4,19.7,7.9,29.6,11.9c0.4,0.199,0.8,0.299,1.3,0.399c0.1-0.3,0.1-0.5,0.1-0.601
		c0.1-10.6,0.1-21.199,0.2-31.799c0-1-0.4-1.3-1.2-1.6c-6.6-2.3-13.2-4.6-19.8-6.9C89.8,93.3,86.1,92,82.2,90.7z"/>
	<path d="M32.3,71.7c7,2.4,13.6,4.7,20.3,7c2.9,1,5.9,2.1,8.8,3c1.1,0.3,1.5,0.9,1.4,2c0,10.2,0,20.5,0,30.7c0,2.2-0.1,2.2-2.1,1.4
		c-7.9-3.2-15.8-6.4-23.7-9.5c-4.7-1.9-4.7-1.9-4.7-6.9c0-8.5,0-17.1,0-25.6C32.3,73.2,32.3,72.6,32.3,71.7z M61.2,114.3
		c0-0.5,0.1-0.801,0.1-1c0.1-9.5,0.2-19,0.3-28.6c0-1.1-0.5-1.4-1.4-1.6c-5.2-1.8-10.3-3.6-15.5-5.4c-3.6-1.3-7.3-2.5-11-3.8
		c0,0.5-0.1,0.8-0.1,1.1c0,8.9,0.1,17.9,0.1,26.8c0,1.3,0.4,1.8,1.5,2.3c7.3,2.9,14.6,5.8,21.9,8.8
		C58.4,113.201,59.7,113.701,61.2,114.3z"/>
	<path d="M104.3,54.8c0.1,2.2-0.2,2.4-1.9,1.9c-20.1-6-40.1-12.1-60.2-18.1c-0.6-0.2-1.7-0.6-1.7-0.9c-0.1-1.1,0.1-2.2,0.5-3.2
		c0.1-0.3,1.4-0.2,2.1,0c5.2,1.5,10.5,3.1,15.7,4.7c14.5,4.3,28.9,8.7,43.4,12.9C103.9,52.5,104.6,53.3,104.3,54.8z M42,35.7
		c-0.5,1.5,0.6,1.5,1.4,1.7c16.3,4.9,32.6,9.8,48.9,14.8c3.5,1,6.9,2.1,10.4,3.1c0.6-1.3-0.2-1.6-1-1.8c-4.4-1.3-8.9-2.7-13.3-4
		C73,44.9,57.5,40.4,42,35.7z"/>
</g>
<path d="M119.067,50.439c-1.723,0-1.723,2.672,0,2.672S120.79,50.439,119.067,50.439z"/>
<path d="M114.463,49.002c-1.632,0-1.632,2.531,0,2.531S116.095,49.002,114.463,49.002z"/>
<path d="M110.28,47.709c-1.65,0-1.65,2.558,0,2.558C111.93,50.268,111.93,47.709,110.28,47.709z"/>
<path fill="none" d="M186.868,74.986c4.136,1.138,8.271,2.276,12.407,3.414"/>
<path fill="none" d="M124.775,57.9c8.855,2.494,17.622,5.287,26.45,7.872"/>
<line fill="none" x1="189.9" y1="105.525" x2="190.275" y2="105.65"/>
<path d="M152.231,64.515c-0.469-0.156-0.938-0.32-1.406-0.467c-2.384-0.748-13.292-2.265-13.315-4.397
	c-0.004-0.38-0.259-0.73-0.631-0.829c-2.487-0.661-4.541-0.883-7.064-0.455c-0.734,0.125-0.528,1.245,0.17,1.258
	c2.022,0.039,5.811-0.68,5.787,2.026c-0.004,0.358,0.267,0.787,0.646,0.848c5.436,0.874,10.673,2.411,15.878,4.093
	C152.184,65.965,152.169,65.296,152.231,64.515z"/>
<path d="M156.521,76.339c-0.518-0.542-1.054-1.079-1.629-1.598c-0.238-0.215-0.325-0.535-0.296-0.846
	c-0.288-0.109-0.576-0.209-0.864-0.319c-2.851-1.092-5.721-2.065-8.67-2.857c-2.159-0.581-7.498-0.384-8.208-2.642
	c-0.11-0.352-0.468-0.708-0.87-0.663c-2.212,0.251-4.343,0.397-6.513,0.921c-0.849,0.205-0.484,1.46,0.357,1.296
	c1.69-0.33,5.145-1.155,5.928,0.931c0.158,0.42,0.447,0.639,0.894,0.68c6.938,0.641,13.251,3.122,19.658,5.457
	C156.358,76.571,156.428,76.447,156.521,76.339z"/>
<path d="M164.587,89.659c-0.422-0.004-0.699-0.216-0.864-0.496c-2.256-0.132-4.528-0.196-6.657-0.497
	c-3.277-0.463-12.561-1.013-14.182-4.543c-0.188-0.408-0.767-0.609-1.178-0.479c-2.459,0.778-5.87,1.788-6.711-2.607
	c-0.081-0.425-0.579-0.808-1.012-0.771c-2.301,0.2-3.973,0.674-5.14,2.773c-0.035,0.064-0.052,0.131-0.058,0.199
	c0.11-0.008,0.222-0.015,0.336,0.001c0.38,0.054,0.758,0.018,1.132-0.048c0.121-0.045,0.241-0.092,0.36-0.14
	c0.065-0.026,0.125-0.02,0.188-0.031c0.102-0.055,0.198-0.106,0.283-0.142c0.04-0.017,0.082-0.021,0.123-0.035
	c1.165-0.437,1.599,0.265,2.755,1.534c1.275,1.399,2.532,1.81,4.39,1.98c2.011,0.183,2.396-1.135,3.688,0.12
	c0.938,0.91,2.296,1.38,3.494,1.83c4.266,1.602,8.981,1.968,13.471,2.497c3.401,0.4,7.76,1.336,11.146,0.462
	c0.196-0.051,0.318-0.182,0.388-0.334C168.629,90.223,166.677,89.678,164.587,89.659z"/>
<path d="M131.558,58.742c-1.296-1.488-3.395-2.303-5.058-3.309c-1.132-0.685-2.173,1.104-1.033,1.768
	c1.656,0.965,3.346,2.06,5.106,2.818C131.41,60.378,132.193,59.471,131.558,58.742z"/>
<path d="M131.49,68.354c-0.547-0.94-1.78-0.784-2.729-1.021c-1.244-0.311-2.373-0.991-3.608-1.293
	c-0.627-0.153-1.044,0.591-0.615,1.058c0.86,0.938,2.141,1.559,3.316,2.002c1.092,0.411,2.863,1.021,3.637-0.154
	C131.603,68.773,131.591,68.528,131.49,68.354z"/>
<path d="M129.123,83.241c0.38,0.054,0.758,0.018,1.132-0.048c0.121-0.045,0.241-0.092,0.36-0.14c0.065-0.026,0.125-0.02,0.188-0.031
	c0.102-0.055,0.198-0.106,0.283-0.142c0.17-0.071,0.343-0.102,0.515-0.114c0.703-0.515,0.186-1.553-0.601-1.646
	c-0.979-0.115-1.806,0.083-2.754-0.316c-0.963-0.405-1.668-1.314-2.331-2.086c-0.213-0.247-0.656-0.051-0.641,0.265
	c0.106,2.106,1.81,3.935,3.808,4.257C129.096,83.243,129.109,83.239,129.123,83.241z"/>
<path d="M186.103,107.541c-7.207-3.932-16.116-3.259-23.927-5.277c-3.481-0.899-6.982-1.729-10.4-2.857
	c-2.909-0.961-7.921-2.05-9.541-4.959c-0.234-0.422-0.745-0.604-1.201-0.489c-4.239,1.073-8.376,0.868-9.409-4.243
	c-0.117-0.581-0.73-0.79-1.243-0.706c-1.998,0.326-3.188,1.039-4.518,2.521c-0.465,0.519,0.146,1.432,0.776,1.006
	c3.342-2.253,3.26,0.134,5.052,2.236c1.258,1.475,3.487,1.802,5.283,1.92c2.461,0.163,3.043-1.109,4.717,0.394
	c1.463,1.313,3.467,2.024,5.265,2.739c4.964,1.973,10.355,3.017,15.522,4.327c7.423,1.882,15.904,1.223,22.718,4.94
	C186.214,109.648,187.121,108.096,186.103,107.541z"/>
<path d="M177.65,117.01c-3.181,0.166-5.685-2.62-8.839-3.328c-4.72-1.061-9.076-1.657-13.592-3.553
	c-4.063-1.707-8.211-2.721-12.545-3.465c-1.732-0.297-3.498-0.729-5.208-1.148c-1.307-0.32-2.202-0.04-3.334,0.015
	c-0.489-5.013-7.181-6.819-9.146-1.396c-0.201,0.557,0.525,1.109,1.01,0.776c2.223-1.527,6.278-2.755,5.828,1.74
	c-0.068,0.686,0.585,1.085,1.159,1.159c2.596,0.332,5.4,0.332,8.06,0.52c5.589,0.395,10.282,2.39,15.458,4.313
	c4.574,1.699,11.856,1.334,15.561,4.523c1.876,1.615,3.421,2.029,5.758,1.104C178.447,118.021,178.426,116.97,177.65,117.01z"/>
<path d="M183.814,125.389c-10.08-1.547-19.684-4.403-29.563-6.825c-9.724-2.383-18.187-7.878-28.267-8.903
	c-0.852-0.086-0.818,1.204,0,1.313c5.898,0.78,11.051,3.348,16.359,5.87c4.101,1.949,8.29,3.077,12.68,4.169
	c9.189,2.285,19.006,6.619,28.627,5.589C184.284,126.534,184.557,125.502,183.814,125.389z"/>
<path d="M177.805,94.317c-0.904-0.487-1.797-0.998-2.675-1.534c-1.85-0.725-3.666-1.558-5.533-2.183
	c-1.096-0.169-2.192-0.297-3.28-0.364c-0.408-0.025-0.57,0.586-0.209,0.771c2.802,1.436,6.053,2.018,9.058,2.895
	c0.907,0.264,1.809,0.556,2.701,0.871c-0.023-0.133-0.036-0.268-0.063-0.401C177.8,94.353,177.808,94.337,177.805,94.317z"/>
<path d="M156.043,75.218c-0.025,0.016-0.052,0.031-0.077,0.046c-0.077,0.046-0.108,0.133-0.089,0.218
	c0.037,0.162,0.201,0.141,0.328,0.121C156.498,75.557,156.323,75.05,156.043,75.218z"/>
<path d="M165.555,77.933c-1.457-1.342-3.561-1.505-5.43-1.987c-2.372-0.611-4.698-1.341-6.962-2.276
	c-0.793-0.328-1.357,1.023-0.584,1.385c2.006,0.938,4.035,1.842,6.125,2.575c2.021,0.708,4.512,1.817,6.637,1.113
	C165.671,78.633,165.836,78.192,165.555,77.933z"/>
<path d="M158.872,66.914c-1.104-0.789-2.426-1.043-3.718-1.386c-1.409-0.374-2.861-1.013-4.316-1.106
	c-0.337-0.021-0.434,0.395-0.243,0.599l-0.007,0.005c0.914,1.025,2.364,1.44,3.639,1.849c1.414,0.453,2.876,0.971,4.361,1.089
	C159.198,68.011,159.282,67.208,158.872,66.914z"/>
<path d="M157.417,66.72c-0.682-0.399-1.44-0.507-2.202-0.683c-0.963-0.222-1.914-0.491-2.871-0.736
	c-0.615-0.158-0.875,0.785-0.262,0.949c1.596,0.428,3.604,1.363,5.269,0.984C157.591,67.179,157.621,66.838,157.417,66.72z"/>
<path d="M160.803,68.211c-0.473-0.779-1.563-1.3-2.495-1.282c-1.847,0.036-4.018-0.757-5.823-1.151
	c-0.402-0.087-0.566,0.497-0.17,0.618c1.561,0.477,3.132,0.905,4.707,1.33c1.237,0.334,2.305,1.294,3.632,0.853
	C160.804,68.528,160.891,68.355,160.803,68.211z"/>
</svg>
